<svg xmlns="http://www.w3.org/2000/svg" width="180.672" height="153.382" viewBox="0 0 180.672 153.382">
  <g id="Cyber_attack-cuate" data-name="Cyber attack-cuate" transform="translate(0 -24.766)">
    <g id="freepik--Floor--inject-20" transform="translate(0 175.729)">
      <path id="Path_6683" data-name="Path 6683" d="M41.54,440.993l22.165-.106,22.16-.038,44.325-.068,44.325.068,22.16.038,22.165.106-22.165.1-22.16.038-44.325.068-44.325-.068-22.16-.038Z" transform="translate(-41.54 -440.78)" fill="#263238"/>
    </g>
    <g id="freepik--credit-card--inject-20" transform="translate(103.492 67.149)">
      <path id="Path_6684" data-name="Path 6684" d="M331.356,189.858l-1.2,25.307a2.552,2.552,0,0,1-2.679,2.441l-40.14-1.888a2.552,2.552,0,0,1-2.437-2.683l1.191-25.307a2.386,2.386,0,0,1,2.5-2.271l40.493,1.905A2.39,2.39,0,0,1,331.356,189.858Z" transform="translate(-284.902 -185.454)" fill="#263238"/>
      <path id="Path_6685" data-name="Path 6685" d="M370.014,242.873a2.36,2.36,0,1,1-2.245-2.467A2.36,2.36,0,0,1,370.014,242.873Z" transform="translate(-331.108 -217.036)" fill="#dbdbdb"/>
      <path id="Path_6686" data-name="Path 6686" d="M376.834,243.193a2.356,2.356,0,1,1-.611-1.7A2.36,2.36,0,0,1,376.834,243.193Z" transform="translate(-335.027 -217.22)" fill="#ffa101"/>
      <rect id="Rectangle_2109" data-name="Rectangle 2109" width="8.505" height="5.877" rx="2.939" transform="matrix(0.999, 0.047, -0.047, 0.999, 4.9, 4.422)" fill="#ffa101"/>
      <path id="Path_6687" data-name="Path 6687" d="M374.009,202.8l-3.827-.183a1.612,1.612,0,0,1-1.535-1.7h0a1.616,1.616,0,0,1,1.7-1.535l3.827.179a1.612,1.612,0,0,1,1.531,1.7h0a1.612,1.612,0,0,1-1.7,1.539Z" transform="translate(-333.032 -193.454)" fill="#fff"/>
      <rect id="Rectangle_2110" data-name="Rectangle 2110" width="21.518" height="1.059" transform="matrix(0.999, 0.047, -0.047, 0.999, 4.067, 22.084)" fill="#dbdbdb"/>
      <rect id="Rectangle_2111" data-name="Rectangle 2111" width="15.233" height="1.059" transform="matrix(0.999, 0.047, -0.047, 0.999, 3.955, 24.432)" fill="#dbdbdb"/>
      <rect id="Rectangle_2112" data-name="Rectangle 2112" width="10.729" height="1.059" transform="matrix(0.999, 0.047, -0.047, 0.999, 23.474, 5.297)" fill="#dbdbdb"/>
      <rect id="Rectangle_2113" data-name="Rectangle 2113" width="1.607" height="0.128" transform="translate(5.098 18.049) rotate(-87.19)" fill="#fff"/>
      <path id="Path_6688" data-name="Path 6688" d="M296.827,225.964l-1.607-.077,0-.128,1.608.077Z" transform="translate(-290.832 -208.619)" fill="#fff"/>
      <rect id="Rectangle_2114" data-name="Rectangle 2114" width="1.607" height="0.128" transform="matrix(0.742, -0.67, 0.67, 0.742, 4.551, 17.728)" fill="#fff"/>
      <path id="Path_6689" data-name="Path 6689" d="M296.81,225.776l-1.08-1.191.094-.085,1.084,1.191Z" transform="translate(-291.125 -207.895)" fill="#fff"/>
      <rect id="Rectangle_2115" data-name="Rectangle 2115" width="1.607" height="0.128" transform="translate(7.03 18.145) rotate(-87.19)" fill="#fff"/>
      <path id="Path_6690" data-name="Path 6690" d="M301.367,226.188l-1.607-.081.008-.128,1.608.081Z" transform="translate(-293.441 -208.746)" fill="#fff"/>
      <rect id="Rectangle_2116" data-name="Rectangle 2116" width="1.607" height="0.128" transform="matrix(0.742, -0.67, 0.67, 0.742, 6.49, 17.826)" fill="#fff"/>
      <rect id="Rectangle_2117" data-name="Rectangle 2117" width="0.128" height="1.607" transform="translate(6.539 16.797) rotate(-42.15)" fill="#fff"/>
      <rect id="Rectangle_2118" data-name="Rectangle 2118" width="1.607" height="0.128" transform="translate(8.962 18.241) rotate(-87.19)" fill="#fff"/>
      <path id="Path_6691" data-name="Path 6691" d="M305.917,226.418l-1.607-.081,0-.128,1.607.081Z" transform="translate(-296.056 -208.878)" fill="#fff"/>
      <rect id="Rectangle_2119" data-name="Rectangle 2119" width="1.607" height="0.128" transform="matrix(0.742, -0.67, 0.67, 0.742, 8.42, 17.924)" fill="#fff"/>
      <rect id="Rectangle_2120" data-name="Rectangle 2120" width="0.128" height="1.607" transform="translate(8.473 16.894) rotate(-42.15)" fill="#fff"/>
      <rect id="Rectangle_2121" data-name="Rectangle 2121" width="1.607" height="0.128" transform="translate(10.898 18.338) rotate(-87.19)" fill="#fff"/>
      <path id="Path_6692" data-name="Path 6692" d="M310.458,226.644l-1.607-.081.008-.123,1.607.077Z" transform="translate(-298.666 -209.01)" fill="#fff"/>
      <rect id="Rectangle_2122" data-name="Rectangle 2122" width="1.607" height="0.128" transform="matrix(0.742, -0.67, 0.67, 0.742, 10.355, 18.017)" fill="#fff"/>
      <rect id="Rectangle_2123" data-name="Rectangle 2123" width="0.128" height="1.607" transform="translate(10.408 16.993) rotate(-42.15)" fill="#fff"/>
      <rect id="Rectangle_2124" data-name="Rectangle 2124" width="1.607" height="0.128" transform="translate(15.115 18.549) rotate(-87.19)" fill="#fff"/>
      <path id="Path_6693" data-name="Path 6693" d="M320.387,227.134l-1.607-.077,0-.128,1.607.081Z" transform="translate(-304.373 -209.292)" fill="#fff"/>
      <rect id="Rectangle_2125" data-name="Rectangle 2125" width="1.607" height="0.128" transform="matrix(0.742, -0.67, 0.67, 0.742, 14.573, 18.227)" fill="#fff"/>
      <rect id="Rectangle_2126" data-name="Rectangle 2126" width="0.128" height="1.607" transform="translate(14.623 17.2) rotate(-42.15)" fill="#fff"/>
      <rect id="Rectangle_2127" data-name="Rectangle 2127" width="1.607" height="0.128" transform="translate(17.051 18.641) rotate(-87.19)" fill="#fff"/>
      <path id="Path_6694" data-name="Path 6694" d="M324.927,227.358l-1.607-.081.009-.128,1.607.081Z" transform="translate(-306.982 -209.418)" fill="#fff"/>
      <rect id="Rectangle_2128" data-name="Rectangle 2128" width="1.607" height="0.128" transform="matrix(0.742, -0.67, 0.67, 0.742, 16.508, 18.325)" fill="#fff"/>
      <rect id="Rectangle_2129" data-name="Rectangle 2129" width="0.128" height="1.607" transform="translate(16.562 17.296) rotate(-42.15)" fill="#fff"/>
      <rect id="Rectangle_2130" data-name="Rectangle 2130" width="1.607" height="0.128" transform="translate(18.983 18.741) rotate(-87.19)" fill="#fff"/>
      <path id="Path_6695" data-name="Path 6695" d="M329.477,227.588l-1.607-.081,0-.128,1.607.081Z" transform="translate(-309.597 -209.55)" fill="#fff"/>
      <path id="Path_6696" data-name="Path 6696" d="M328.345,227.414l-.085-.094,1.2-1.08.085.1Z" transform="translate(-309.822 -208.895)" fill="#fff"/>
      <rect id="Rectangle_2131" data-name="Rectangle 2131" width="0.128" height="1.607" transform="translate(18.493 17.377) rotate(-42.15)" fill="#fff"/>
      <rect id="Rectangle_2132" data-name="Rectangle 2132" width="1.607" height="0.128" transform="translate(20.919 18.834) rotate(-87.19)" fill="#fff"/>
      <path id="Path_6697" data-name="Path 6697" d="M334.018,227.808l-1.607-.077.009-.132,1.607.081Z" transform="translate(-312.207 -209.677)" fill="#fff"/>
      <rect id="Rectangle_2133" data-name="Rectangle 2133" width="1.607" height="0.128" transform="matrix(0.742, -0.67, 0.67, 0.742, 20.372, 18.516)" fill="#fff"/>
      <rect id="Rectangle_2134" data-name="Rectangle 2134" width="0.128" height="1.607" transform="translate(20.428 17.489) rotate(-42.15)" fill="#fff"/>
      <rect id="Rectangle_2135" data-name="Rectangle 2135" width="1.607" height="0.128" transform="translate(25.135 19.044) rotate(-87.19)" fill="#fff"/>
      <path id="Path_6698" data-name="Path 6698" d="M343.948,228.308l-1.607-.081,0-.128,1.607.081Z" transform="translate(-317.914 -209.964)" fill="#fff"/>
      <rect id="Rectangle_2136" data-name="Rectangle 2136" width="1.607" height="0.128" transform="matrix(0.742, -0.67, 0.67, 0.742, 24.59, 18.726)" fill="#fff"/>
      <rect id="Rectangle_2137" data-name="Rectangle 2137" width="0.128" height="1.607" transform="translate(24.644 17.7) rotate(-42.15)" fill="#fff"/>
      <rect id="Rectangle_2138" data-name="Rectangle 2138" width="1.607" height="0.128" transform="translate(27.071 19.141) rotate(-87.19)" fill="#fff"/>
      <path id="Path_6699" data-name="Path 6699" d="M348.487,228.528l-1.607-.077.009-.132,1.607.081Z" transform="translate(-320.523 -210.091)" fill="#fff"/>
      <rect id="Rectangle_2139" data-name="Rectangle 2139" width="1.607" height="0.128" transform="matrix(0.742, -0.67, 0.67, 0.742, 26.525, 18.819)" fill="#fff"/>
      <rect id="Rectangle_2140" data-name="Rectangle 2140" width="0.128" height="1.607" transform="translate(26.582 17.797) rotate(-42.15)" fill="#fff"/>
      <rect id="Rectangle_2141" data-name="Rectangle 2141" width="1.607" height="0.128" transform="translate(29.003 19.237) rotate(-87.19)" fill="#fff"/>
      <path id="Path_6700" data-name="Path 6700" d="M353.037,228.758l-1.607-.081,0-.128,1.607.081Z" transform="translate(-323.138 -210.223)" fill="#fff"/>
      <path id="Path_6701" data-name="Path 6701" d="M351.905,228.588l-.085-.1,1.2-1.08.085.1Z" transform="translate(-323.362 -209.568)" fill="#fff"/>
      <rect id="Rectangle_2142" data-name="Rectangle 2142" width="0.128" height="1.607" transform="translate(28.509 17.873) rotate(-42.15)" fill="#fff"/>
      <rect id="Rectangle_2143" data-name="Rectangle 2143" width="1.607" height="0.128" transform="translate(30.935 19.333) rotate(-87.19)" fill="#fff"/>
      <path id="Path_6702" data-name="Path 6702" d="M357.583,228.984l-1.6-.077,0-.128,1.607.077Z" transform="translate(-325.753 -210.355)" fill="#fff"/>
      <path id="Path_6703" data-name="Path 6703" d="M356.455,228.814l-.085-.094,1.191-1.08.089.094Z" transform="translate(-325.978 -209.7)" fill="#fff"/>
      <rect id="Rectangle_2144" data-name="Rectangle 2144" width="0.128" height="1.607" transform="translate(30.448 17.99) rotate(-42.15)" fill="#fff"/>
      <rect id="Rectangle_2145" data-name="Rectangle 2145" width="1.607" height="0.128" transform="translate(35.156 19.544) rotate(-87.19)" fill="#fff"/>
      <path id="Path_6704" data-name="Path 6704" d="M367.508,229.478,365.9,229.4l0-.128,1.607.081Z" transform="translate(-331.455 -210.637)" fill="#fff"/>
      <rect id="Rectangle_2146" data-name="Rectangle 2146" width="1.607" height="0.128" transform="matrix(0.742, -0.67, 0.67, 0.742, 34.611, 19.225)" fill="#fff"/>
      <rect id="Rectangle_2147" data-name="Rectangle 2147" width="0.128" height="1.607" transform="translate(34.664 18.197) rotate(-42.15)" fill="#fff"/>
      <rect id="Rectangle_2148" data-name="Rectangle 2148" width="1.607" height="0.128" transform="translate(37.092 19.641) rotate(-87.19)" fill="#fff"/>
      <path id="Path_6705" data-name="Path 6705" d="M372.047,229.7l-1.607-.081.009-.123,1.607.077Z" transform="translate(-334.064 -210.769)" fill="#fff"/>
      <rect id="Rectangle_2149" data-name="Rectangle 2149" width="1.607" height="0.128" transform="matrix(0.742, -0.67, 0.67, 0.742, 36.546, 19.318)" fill="#fff"/>
      <rect id="Rectangle_2150" data-name="Rectangle 2150" width="0.128" height="1.607" transform="translate(36.598 18.293) rotate(-42.15)" fill="#fff"/>
      <rect id="Rectangle_2151" data-name="Rectangle 2151" width="1.607" height="0.128" transform="translate(39.024 19.737) rotate(-87.19)" fill="#fff"/>
      <path id="Path_6706" data-name="Path 6706" d="M376.6,229.928l-1.607-.081,0-.128,1.607.081Z" transform="translate(-336.679 -210.895)" fill="#fff"/>
      <rect id="Rectangle_2152" data-name="Rectangle 2152" width="1.607" height="0.128" transform="matrix(0.742, -0.67, 0.67, 0.742, 38.481, 19.416)" fill="#fff"/>
      <path id="Path_6707" data-name="Path 6707" d="M376.584,229.74l-1.084-1.195.1-.085,1.08,1.195Z" transform="translate(-336.972 -210.171)" fill="#fff"/>
      <rect id="Rectangle_2153" data-name="Rectangle 2153" width="1.607" height="0.128" transform="translate(40.956 19.833) rotate(-87.19)" fill="#fff"/>
      <path id="Path_6708" data-name="Path 6708" d="M381.143,230.158l-1.6-.081,0-.128,1.607.077Z" transform="translate(-339.294 -211.027)" fill="#fff"/>
      <rect id="Rectangle_2154" data-name="Rectangle 2154" width="1.607" height="0.128" transform="matrix(0.742, -0.67, 0.67, 0.742, 40.41, 19.509)" fill="#fff"/>
      <path id="Path_6709" data-name="Path 6709" d="M381.13,229.966l-1.08-1.191.094-.085,1.08,1.191Z" transform="translate(-339.587 -210.303)" fill="#fff"/>
      <ellipse id="Ellipse_27" data-name="Ellipse 27" cx="4.822" cy="4.822" rx="4.822" ry="4.822" transform="translate(39.54 26.603)" fill="#ffa101"/>
      <rect id="Rectangle_2155" data-name="Rectangle 2155" width="4.282" height="3.351" transform="translate(42.223 30.838)" fill="#fff"/>
      <path id="Path_6710" data-name="Path 6710" d="M388.652,253.532h-.425v-.4a1.276,1.276,0,0,0-2.552,0v1.735h-.425v-1.735a1.712,1.712,0,0,1,3.423,0Z" transform="translate(-342.576 -223.37)" fill="#fff"/>
      <path id="Path_6711" data-name="Path 6711" d="M388.86,260.387l.179.851h-.761l.179-.851a.378.378,0,0,1-.179-.319.383.383,0,1,1,.761,0A.378.378,0,0,1,388.86,260.387Z" transform="translate(-344.315 -228.095)" fill="#ffa101"/>
    </g>
    <g id="freepik--Password--inject-20" transform="translate(12.715 46.476)">
      <rect id="Rectangle_2156" data-name="Rectangle 2156" width="51.176" height="7.757" transform="translate(6.192 0.94)" fill="#fff"/>
      <path id="Path_6714" data-name="Path 6714" d="M137.1,146.732H85.5V138.55h51.6Zm-51.176-.425h50.75v-7.331H85.925Z" transform="translate(-79.521 -137.823)" fill="#ebebeb"/>
      <rect id="Rectangle_2157" data-name="Rectangle 2157" width="0.425" height="3.551" transform="translate(14.574 3.168)" fill="#37474f"/>
      <rect id="Rectangle_2158" data-name="Rectangle 2158" width="3.551" height="0.425" transform="translate(13.009 4.733)" fill="#37474f"/>
      <rect id="Rectangle_2159" data-name="Rectangle 2159" width="3.551" height="0.425" transform="translate(13.378 6.053) rotate(-45)" fill="#37474f"/>
      <rect id="Rectangle_2160" data-name="Rectangle 2160" width="0.425" height="3.551" transform="translate(13.378 3.84) rotate(-45)" fill="#37474f"/>
      <rect id="Rectangle_2161" data-name="Rectangle 2161" width="0.425" height="3.551" transform="translate(20.6 3.168)" fill="#37474f"/>
      <rect id="Rectangle_2162" data-name="Rectangle 2162" width="3.551" height="0.425" transform="translate(19.039 4.733)" fill="#37474f"/>
      <rect id="Rectangle_2163" data-name="Rectangle 2163" width="3.551" height="0.425" transform="translate(19.411 6.051) rotate(-45)" fill="#37474f"/>
      <rect id="Rectangle_2164" data-name="Rectangle 2164" width="0.425" height="3.551" transform="translate(19.411 3.837) rotate(-45)" fill="#37474f"/>
      <rect id="Rectangle_2165" data-name="Rectangle 2165" width="0.425" height="3.551" transform="translate(26.63 3.168)" fill="#37474f"/>
      <rect id="Rectangle_2166" data-name="Rectangle 2166" width="3.551" height="0.425" transform="translate(25.069 4.733)" fill="#37474f"/>
      <rect id="Rectangle_2167" data-name="Rectangle 2167" width="3.551" height="0.425" transform="translate(25.436 6.055) rotate(-45)" fill="#37474f"/>
      <rect id="Rectangle_2168" data-name="Rectangle 2168" width="0.425" height="3.551" transform="translate(25.436 3.842) rotate(-45)" fill="#37474f"/>
      <rect id="Rectangle_2169" data-name="Rectangle 2169" width="0.425" height="3.551" transform="translate(32.66 3.168)" fill="#37474f"/>
      <rect id="Rectangle_2170" data-name="Rectangle 2170" width="3.551" height="0.425" transform="translate(31.095 4.733)" fill="#37474f"/>
      <rect id="Rectangle_2171" data-name="Rectangle 2171" width="3.551" height="0.425" transform="translate(31.465 6.052) rotate(-45)" fill="#37474f"/>
      <rect id="Rectangle_2172" data-name="Rectangle 2172" width="0.425" height="3.551" transform="translate(31.465 3.835) rotate(-45)" fill="#37474f"/>
      <rect id="Rectangle_2173" data-name="Rectangle 2173" width="0.425" height="3.551" transform="translate(38.69 3.168)" fill="#37474f"/>
      <rect id="Rectangle_2174" data-name="Rectangle 2174" width="3.551" height="0.425" transform="translate(37.125 4.733)" fill="#37474f"/>
      <rect id="Rectangle_2175" data-name="Rectangle 2175" width="3.551" height="0.425" transform="translate(37.494 6.053) rotate(-45)" fill="#37474f"/>
      <rect id="Rectangle_2176" data-name="Rectangle 2176" width="0.425" height="3.551" transform="translate(37.494 3.836) rotate(-45)" fill="#37474f"/>
      <rect id="Rectangle_2177" data-name="Rectangle 2177" width="0.425" height="3.551" transform="translate(44.716 3.168)" fill="#37474f"/>
      <rect id="Rectangle_2178" data-name="Rectangle 2178" width="3.551" height="0.425" transform="translate(43.155 4.733)" fill="#37474f"/>
      <rect id="Rectangle_2179" data-name="Rectangle 2179" width="3.551" height="0.425" transform="translate(43.527 6.05) rotate(-45)" fill="#37474f"/>
      <rect id="Rectangle_2180" data-name="Rectangle 2180" width="0.425" height="3.551" transform="translate(43.524 3.836) rotate(-45)" fill="#37474f"/>
      <path id="Path_6715" data-name="Path 6715" d="M81.085,141.658a4.822,4.822,0,1,1-4.818-4.818A4.822,4.822,0,0,1,81.085,141.658Z" transform="translate(-71.44 -136.84)" fill="#ffa101"/>
      <rect id="Rectangle_2181" data-name="Rectangle 2181" width="4.282" height="3.351" transform="translate(2.683 4.231)" fill="#fff"/>
      <path id="Path_6716" data-name="Path 6716" d="M82.212,142.371h-.425v-.4a1.276,1.276,0,0,0-2.552,0v1.735H78.81v-1.735a1.7,1.7,0,0,1,3.4,0Z" transform="translate(-75.676 -138.811)" fill="#fff"/>
      <path id="Path_6717" data-name="Path 6717" d="M82.423,149.274l.179.851H81.84l.183-.851a.378.378,0,1,1,.578-.323A.383.383,0,0,1,82.423,149.274Z" transform="translate(-77.417 -143.584)" fill="#ffa101"/>
    </g>
    <g id="freepik--Shield--inject-20" transform="translate(62.849 24.766)">
      <path id="Path_6718" data-name="Path 6718" d="M240.935,102.6s-3.772,30.193-9.964,36.968c-7.438,8.148-12.834,6.957-15.841,11.159h0c-3-4.206-8.4-3.007-15.841-11.163-6.2-6.8-9.96-36.968-9.96-36.968,16.321-7.918,25.8-16.8,25.8-16.8h0C215.424,86.071,224.865,94.81,240.935,102.6Z" transform="translate(-189.33 -85.79)" fill="#ffa101"/>
      <path id="Path_6719" data-name="Path 6719" d="M215.13,85.8v64.924h0c-3-4.206-8.4-3.007-15.841-11.163-6.2-6.8-9.96-36.968-9.96-36.968,16.321-7.918,25.8-16.8,25.8-16.8Z" transform="translate(-189.33 -85.79)" opacity="0.2"/>
      <path id="Path_6720" data-name="Path 6720" d="M275.8,102.608s-3.772,30.193-9.964,36.968c-7.438,8.148-12.834,6.957-15.841,11.159V85.81C250.293,86.082,259.734,94.821,275.8,102.608Z" transform="translate(-224.2 -85.801)" opacity="0.1"/>
      <path id="Path_6721" data-name="Path 6721" d="M242.338,111.827s-3.181,25.494-8.416,31.231c-6.285,6.906-10.831,5.894-13.383,9.441-2.552-3.547-7.1-2.552-13.387-9.428-5.235-5.728-8.412-31.244-8.412-31.244a95.539,95.539,0,0,0,21.8-14.187A95.54,95.54,0,0,0,242.338,111.827Z" transform="translate(-194.738 -92.601)" fill="#ffa101"/>
      <path id="Path_6722" data-name="Path 6722" d="M220.7,97.793v54.5a2.483,2.483,0,0,0-.162.208c-2.552-3.547-7.1-2.552-13.387-9.428-5.231-5.728-8.407-31.244-8.407-31.244a95.414,95.414,0,0,0,21.8-14.187Z" transform="translate(-194.738 -92.601)" opacity="0.1"/>
      <rect id="Rectangle_2182" data-name="Rectangle 2182" width="15.692" height="12.273" transform="translate(17.954 31.431)" fill="#fff"/>
      <path id="Path_6723" data-name="Path 6723" d="M247.8,143.658h-1.6v-1.45a4.678,4.678,0,0,0-9.356,0v6.358H235.25v-6.358a6.277,6.277,0,0,1,12.549,0Z" transform="translate(-215.722 -114.702)" fill="#fff"/>
      <path id="Path_6724" data-name="Path 6724" d="M248.678,168.755l.655,3.117h-2.785l.655-3.117a1.395,1.395,0,1,1,1.476,0Z" transform="translate(-222.214 -131.991)" fill="#ffa101"/>
    </g>
    <g id="freepik--Character--inject-20" transform="translate(2.738 62.011)">
      <path id="Path_6725" data-name="Path 6725" d="M160.464,280.431c4.091,17.8,12.554,39.124,16.16,42.6,4.567,4.38,34.8,12.413,36.309,12.575,3.734.378,13.277-24.852,9.3-25.426-6.056-.876-30.121-3.721-31.444-5.078s-10.657-13.128-20.208-26.366C163.993,269.6,157.929,269.387,160.464,280.431Z" transform="translate(-112.29 -230.059)" fill="#eb9481"/>
      <path id="Path_6726" data-name="Path 6726" d="M276.11,385.707a75.918,75.918,0,0,0,9.819,4.176c2.683.778,10.466,2.807,11.614-.06.787-1.956-3.649-3.687-6.757-4.984-1.641-.68-3.657-2.4-3.177-3.449.851-1.841,5.061,0,7.833,1.62,5.362,3.113,12.507,8.722,15.781,6,1.237-1.029-.2-2.9-2.3-4.737,3.4,2.126,7.055,3.9,8.475,2.807a1.8,1.8,0,0,0,.4-2.441,2.365,2.365,0,0,0,2.637-.425c1.11-1.161.57-2.875-.646-4.631a1.318,1.318,0,0,0,1.008-.663c2.347-3.581-9.407-13.863-13.476-14.829a103.056,103.056,0,0,0-24.567-2.313C278.045,365.55,276.1,385.7,276.11,385.707Z" transform="translate(-179.095 -281.633)" fill="#eb9481"/>
      <path id="Path_6727" data-name="Path 6727" d="M317.438,392.21a20.318,20.318,0,0,1,7.978,3.07c3.032,2,5.044,4.346,7.591,6.706.064.06-.03.166-.1.1-1.212-1.118-6.234-5.337-7.531-6.294a19.383,19.383,0,0,0-7.952-3.538C317.4,392.252,317.4,392.205,317.438,392.21Z" transform="translate(-202.83 -299.146)" fill="#263238"/>
      <path id="Path_6728" data-name="Path 6728" d="M322.683,380.27a47.672,47.672,0,0,1,9.283,3.215c3.194,1.629,5.694,4.282,8.152,6.834q2.211,2.3,4.321,4.7c.06.068-.03.174-.094.106q-3.738-3.959-7.714-7.684a25.536,25.536,0,0,0-8.467-5.337c-1.8-.685-3.649-1.233-5.494-1.778a.03.03,0,0,1,.013-.055Z" transform="translate(-205.847 -292.284)" fill="#263238"/>
      <path id="Path_6729" data-name="Path 6729" d="M330.6,369.83c3.053.629,5.72,1.165,8.424,2.8a43.451,43.451,0,0,1,8.25,7.115c1.348,1.429,2.624,2.913,3.9,4.393.051.064-.051.153-.106.094a101.024,101.024,0,0,0-9.322-9.228,20.148,20.148,0,0,0-5.209-3.4,36.117,36.117,0,0,0-5.954-1.765S330.58,369.83,330.6,369.83Z" transform="translate(-210.401 -286.284)" fill="#263238"/>
      <path id="Path_6730" data-name="Path 6730" d="M215,306.523l-9.3,29.453s-25.171-7.187-29.768-12.15-13.081-30.576-15.586-42.989,3.781-12.107,9.547-4.291,20.136,26.791,20.94,27.217S215,306.523,215,306.523Z" transform="translate(-112.235 -229.5)" fill="#ffa101"/>
      <path id="Path_6731" data-name="Path 6731" d="M257.055,370.659c1.123-3.474,2.279-6.936,3.274-10.453.566-1.994,1.144-3.989,1.7-5.992.021-.077-.106-.123-.132-.047-1.276,3.44-2.552,6.893-3.644,10.389s-2.237,6.953-3.3,10.449q-.9,2.979-1.625,6.009c0,.038.055.064.072.026C254.776,377.629,255.92,374.146,257.055,370.659Z" transform="translate(-166.003 -277.259)" fill="#263238"/>
      <path id="Path_6732" data-name="Path 6732" d="M193.042,331.958l-1.114-.391c-2.1-.749-4.253-1.552-6.247-2.377-.264-.1-.519-.208-.77-.315-.4-.166-.808-.34-1.2-.51l-.587-.255-.208-.094-.6-.281c-.8-.366-1.556-.736-2.262-1.106l-.489-.259a17.5,17.5,0,0,1-3.1-2.041c-.089-.081-.179-.157-.255-.238a3.031,3.031,0,0,1-.234-.234c-4.6-4.958-13.089-30.572-15.586-42.989-.03-.145-.06-.289-.085-.425v-.094c-.17-.944-.319-2.126-.425-3.372h0c-.349-6.179,2.573-7.187,6.188-4.469C175.075,291.822,188.87,323.755,193.042,331.958Z" transform="translate(-112.272 -229.53)" opacity="0.1"/>
      <path id="Path_6733" data-name="Path 6733" d="M127.211,338.374H65.71c.047-1.323,8.828-40.149,15.807-54.476,8.93-18.367,13.566-19.843,16.321-20.838,3.525-1.276,9.8-.638,11.295.064,1.7.787,7.068,10.206,9,17.078C122,294.041,128.078,337.532,127.211,338.374Z" transform="translate(-58.17 -224.498)" fill="#ffa101"/>
      <path id="Path_6734" data-name="Path 6734" d="M157.154,318.914s-2.841.6-4.091-.9c-1.565-1.875-.982-5.66-.077-7.561,1.063-2.211,4.384-3.734,7.025-3.576a7.006,7.006,0,0,1,4.55,1.641c1.089.931,2.666,4.984,1.569,7.255s-2.552,2.3-3.687,2.62a12.382,12.382,0,0,1-.255,3.683c-.174.425-3.929.77-4.346.425S157.154,318.914,157.154,318.914Z" transform="translate(-107.815 -250.094)" fill="#fff"/>
      <path id="Path_6735" data-name="Path 6735" d="M167.6,339.477h-.106a3.386,3.386,0,0,0-.051-.425l-.064-.578-.06-.583q-.03-.293-.051-.587l-.026-.293v-.88a4.365,4.365,0,0,0,.072.583l.077.583c.026.191.047.387.072.583l.064.583.038.591C167.563,339.188,167.584,339.328,167.6,339.477Z" transform="translate(-116.523 -266.915)" fill="#263238"/>
      <path id="Path_6736" data-name="Path 6736" d="M170.778,339.311h-.111v-.187l-.055-.625-.051-.629c0-.208-.03-.425-.043-.625l-.038-.629v-.472l.025.157a2.015,2.015,0,0,0,.043.31c.03.208.051.425.077.625s.043.425.06.625l.055.625.051.629Z" transform="translate(-118.385 -266.834)" fill="#263238"/>
      <path id="Path_6737" data-name="Path 6737" d="M173.578,338.751l-.1.021a2.523,2.523,0,0,0-.026-.357l-.051-.617-.089-1.233c-.03-.425-.06-.816-.111-1.225.026.1.051.2.068.3s.038.2.055.3l.043.306a2.592,2.592,0,0,0,.043.31c.013.1.021.2.034.306a1.82,1.82,0,0,0,.03.306c0,.2.038.425.051.617s.026.425.043.617Z" transform="translate(-119.949 -266.461)" fill="#263238"/>
      <path id="Path_6738" data-name="Path 6738" d="M170.355,329.6a.383.383,0,0,1-.123.23.426.426,0,0,1-.234.1.618.618,0,0,0,.2-.136.425.425,0,0,0,.1-.208.485.485,0,0,0,0-.081.334.334,0,0,1-.06.1c-.425.455-.953-.464-.953-.464s-.234.961-.744.71a.294.294,0,0,1-.119-.106.211.211,0,0,0,0,.051.706.706,0,0,0,.064.14.425.425,0,0,0,.1.115.472.472,0,0,0,.289.115.447.447,0,0,1-.315-.081.493.493,0,0,1-.191-.272.714.714,0,0,1,0-.327v-.06a2.7,2.7,0,0,1,.774-1.34c.132-.119,1,.612,1.157,1.152h0a.481.481,0,0,1,.034.1A.587.587,0,0,1,170.355,329.6Z" transform="translate(-117.158 -262.282)" fill="#263238"/>
      <path id="Path_6739" data-name="Path 6739" d="M169.562,332a.374.374,0,0,1-.128.145.335.335,0,0,1-.187.06.675.675,0,0,1-.1,0l-.089-.034h.094a.316.316,0,0,0,.089,0,.311.311,0,0,0,.157-.06.638.638,0,0,0,.213-.276A.425.425,0,0,1,169.562,332Z" transform="translate(-117.569 -264.444)" fill="#263238"/>
      <path id="Path_6740" data-name="Path 6740" d="M156.551,310.56c-.179.14-.357.289-.523.425a5.7,5.7,0,0,0-.489.476,6.28,6.28,0,0,0-.425.506c-.072.089-.136.179-.2.272l-.089.136a1.7,1.7,0,0,0-.094.145,7.889,7.889,0,0,0-.987,2.509,4.755,4.755,0,0,1,.255-1.348,5.948,5.948,0,0,1,.251-.646,5.311,5.311,0,0,1,.327-.612,5.189,5.189,0,0,1,.88-1.067,6.443,6.443,0,0,1,.532-.425A4.644,4.644,0,0,1,156.551,310.56Z" transform="translate(-108.764 -252.219)" fill="#ffa101"/>
      <path id="Path_6741" data-name="Path 6741" d="M158.21,311.692a2.156,2.156,0,0,1,.327-.476,3.325,3.325,0,0,1,.425-.391,3.623,3.623,0,0,1,.481-.319c.085-.047.174-.085.259-.123l.268-.1c-.077.055-.162.1-.238.153l-.119.077-.119.081-.115.077-.115.085c-.081.051-.153.111-.225.166-.149.119-.289.238-.425.366S158.338,311.547,158.21,311.692Z" transform="translate(-111.333 -252.058)" fill="#ffa101"/>
      <path id="Path_6742" data-name="Path 6742" d="M160.79,309.968a.765.765,0,0,1,.208-.162.557.557,0,0,1,.255-.077,2.357,2.357,0,0,1-.225.128,1.522,1.522,0,0,1-.238.111Z" transform="translate(-112.816 -251.742)" fill="#ffa101"/>
      <path id="Path_6743" data-name="Path 6743" d="M157.51,321.635a2.411,2.411,0,0,1,2.513,2.347c-.081,1.922-.953,2.552-1.875,2.586a2.433,2.433,0,0,1-2.522-2.552A2.111,2.111,0,0,1,157.51,321.635Z" transform="translate(-109.846 -258.577)" fill="#ffa101"/>
      <path id="Path_6744" data-name="Path 6744" d="M175.07,321.142A1.841,1.841,0,0,1,177.4,322.6a1.992,1.992,0,0,1-1.331,2.513,2.164,2.164,0,0,1-2.318-2.024A2.106,2.106,0,0,1,175.07,321.142Z" transform="translate(-120.262 -258.259)" fill="#ffa101"/>
      <path id="Path_6745" data-name="Path 6745" d="M177.427,323.133a2.487,2.487,0,0,1-.221.693,1.9,1.9,0,0,1-.191.31,1.663,1.663,0,0,1-.259.259,1.514,1.514,0,0,1-.655.276,1.445,1.445,0,0,0,.612-.323,1.518,1.518,0,0,0,.383-.57,2.347,2.347,0,0,0,.119-.425,1.739,1.739,0,0,1-1.616.982,2.091,2.091,0,0,1-1.021-.268,1.182,1.182,0,0,0,.136.119,1.213,1.213,0,0,0,.234.149,1.273,1.273,0,0,0,.259.1,1.759,1.759,0,0,0,.561.047,1.734,1.734,0,0,1-.574,0,1.658,1.658,0,0,1-.285-.077,1.386,1.386,0,0,1-.264-.132,1.808,1.808,0,0,1-.425-.4,2.368,2.368,0,0,1-.17-.251,1.616,1.616,0,0,1-.132-.272h0a1.8,1.8,0,0,1-.208-.851,2,2,0,0,1,2.08-2.16,1.939,1.939,0,0,1,1.7,2.08h0a2.678,2.678,0,0,1,0,.37Q177.467,322.965,177.427,323.133Z" transform="translate(-120.242 -257.839)" fill="#263238"/>
      <path id="Path_6746" data-name="Path 6746" d="M161.006,332.13a1.276,1.276,0,0,1-.344.162,1.447,1.447,0,0,1-.378.068,1.815,1.815,0,0,1-.753-.115,3.768,3.768,0,0,0,.374.051,3.662,3.662,0,0,0,.374,0,2.208,2.208,0,0,0,.37-.051l.089-.026.089-.026A.98.98,0,0,0,161.006,332.13Z" transform="translate(-112.092 -264.616)" fill="#263238"/>
      <path id="Path_6747" data-name="Path 6747" d="M159.941,324.571a3.516,3.516,0,0,1-.191.77,2.05,2.05,0,0,1-.425.672,1.7,1.7,0,0,1-.306.251,1.77,1.77,0,0,1-.353.162,1.514,1.514,0,0,0,.612-.451,2.025,2.025,0,0,0,.34-.676l.038-.14a2.416,2.416,0,0,1-3.4.391,2.241,2.241,0,0,0,.162.247,1.7,1.7,0,0,0,.208.221,2.037,2.037,0,0,0,.242.187,1.73,1.73,0,0,0,.578.217,1.62,1.62,0,0,1-.608-.166,1.508,1.508,0,0,1-.272-.166,1.887,1.887,0,0,1-.238-.213,2.42,2.42,0,0,1-.374-.527c-.051-.1-.094-.2-.136-.3a2.092,2.092,0,0,1-.1-.3,3.019,3.019,0,0,1-.136-1.221,2.123,2.123,0,0,1,2.364-2.011,2.152,2.152,0,0,1,2.041,2.369,3.612,3.612,0,0,1-.03.425Z" transform="translate(-109.815 -258.515)" fill="#263238"/>
      <path id="Path_6748" data-name="Path 6748" d="M80.432,271.509c-10.138,8.862-36.126,43.755-29.768,51.248s46.421,2.343,57.942-1.778c3.428-1.229-6.927-22.875-10.721-23.738-3.16-.723-20.276,5.1-20.655,4.112-.425-1.118,2.977-8.705,8.348-22.517C91.782,262.91,84.91,267.592,80.432,271.509Z" transform="translate(-48.953 -227.584)" fill="#eb9481"/>
      <path id="Path_6749" data-name="Path 6749" d="M202.82,319.9c8.08-.3,10.172.85,16.84-3.007,4.372-2.552,7.872-.829,5.069,3.623-4.58,7.28-14.884,9.849-18.711,9.713Z" transform="translate(-136.972 -255.178)" fill="#eb9481"/>
      <path id="Path_6750" data-name="Path 6750" d="M151.35,331.034s9.432-4.053,17.988-5.222c5.92-.808,18.988-1.131,30.04,12.851,2.624,3.317,4.006,9.9-2.241,6.043-4.44-2.743-6.426-5.826-9.3-6.953,0,0,.765,8.586-2.658,11.086a78.525,78.525,0,0,1-9.419,5.886,16.66,16.66,0,0,1-1.276-1.663s-3.4,2.028-9.356.851Z" transform="translate(-107.39 -260.802)" fill="#eb9481"/>
      <path id="Path_6751" data-name="Path 6751" d="M201.672,326.55c2.615,1.7,8.08,5.456,11.52,10.074,3.8,5.129,9.734,16.036,5.92,18.8-2.8,2.029-5.431-1.935-5.431-1.935s1.5,5.022-1.425,6.3c-2.666,1.165-4.521-2.024-4.521-2.024s.387,3.206-2.4,3.827c-3.351.757-3.615-6.085-7.655-8.25C196.756,352.861,201.672,326.55,201.672,326.55Z" transform="translate(-133.953 -261.409)" fill="#eb9481"/>
      <path id="Path_6752" data-name="Path 6752" d="M219.923,357.547a25.412,25.412,0,0,1,6.634,13.63c0,.132-.077.213-.115.1a62.575,62.575,0,0,0-6.57-13.693C219.851,357.551,219.894,357.521,219.923,357.547Z" transform="translate(-146.77 -279.219)" fill="#263238"/>
      <path id="Path_6753" data-name="Path 6753" d="M208.03,366.93c1.7,1.939,5.367,8.161,5.813,14,0,.132-.089.2-.123.089A67.192,67.192,0,0,0,208,366.96.03.03,0,0,1,208.03,366.93Z" transform="translate(-139.95 -284.617)" fill="#263238"/>
      <path id="Path_6754" data-name="Path 6754" d="M237.087,354.2c2.513,1.025,4.065,2.466,6.1,4.206a35.343,35.343,0,0,0,3.121,2.454c1,.676,2.467,1.7,3.678.919a2.126,2.126,0,0,0,.693-2.067,10.385,10.385,0,0,0-1.123-3.092c-.021-.038.043-.077.064-.038a14.729,14.729,0,0,1,1.276,2.781,3.5,3.5,0,0,1,.03,2.045c-.527,1.391-2.228,1.408-3.381.893a11.649,11.649,0,0,1-1.939-1.2c-.591-.425-1.161-.876-1.722-1.34-1.144-.957-2.237-1.982-3.372-2.951a33.975,33.975,0,0,0-3.483-2.552.051.051,0,0,1,.06-.064Z" transform="translate(-156.632 -277.299)" fill="#263238"/>
      <path id="Path_6755" data-name="Path 6755" d="M240.646,363.868a80.549,80.549,0,0,0-4.559-9.607.038.038,0,0,1,.06-.043,42.624,42.624,0,0,1,5.141,9.232,14.179,14.179,0,0,1,1.055,5.622c-.276,2.709-2.126,3.036-2.8,3.1a3.534,3.534,0,0,1-2.267-.612,7.135,7.135,0,0,1-1.888-2.173c0-.038.034-.085.06-.047.829,1.161,2.279,2.373,3.772,2.33a2.484,2.484,0,0,0,1.765-.736,3.232,3.232,0,0,0,.655-2.126A14.915,14.915,0,0,0,240.646,363.868Z" transform="translate(-155.692 -277.307)" fill="#263238"/>
      <path id="Path_6756" data-name="Path 6756" d="M91.938,297.188l9.853,27.642s-50.108,6.009-53.472-2.947,19.056-40.4,28.616-49.253c11.078-10.253,11.958-6.294,8.756,3.466-3.355,10.206-9.313,24.89-9.313,24.89Z" transform="translate(-47.979 -226.956)" fill="#ffa101"/>
      <path id="Path_6757" data-name="Path 6757" d="M78.024,351.436a57.629,57.629,0,0,1,7.57-3.47,56.04,56.04,0,0,1,7.91-2.279c1.531-.336,3.07-.6,4.614-.876a.038.038,0,0,1,0,.072,71.938,71.938,0,0,0-7.978,2.207q-3.912,1.276-7.765,2.713c-1.454.54-2.883,1.148-4.321,1.735C77.994,351.567,77.96,351.47,78.024,351.436Z" transform="translate(-65.227 -271.904)" fill="#263238"/>
      <path id="Path_6758" data-name="Path 6758" d="M130.042,322.947c-.251.038-14.1,3.1-14.557,3.266.077-.2,3.2-7.081,3.666-8.08.047-.1.089-.2.136-.3.289-.425.583-.88.851-1.331l1.046-1.744s0-.038-.03-.021c-.37.566-.744,1.127-1.114,1.7-.174.259-.336.527-.5.8.31-.714.612-1.429.914-2.148.481-1.148.923-2.3,1.365-3.47,0-.034-.043-.055-.06,0-.923,2-1.905,3.98-2.832,5.983s-4.461,9.356-4.44,9.356,15.284-3.708,15.581-3.8a.1.1,0,1,0-.03-.2Z" transform="translate(-86.205 -252.805)" fill="#263238"/>
      <path id="Path_6759" data-name="Path 6759" d="M141.661,359.445c-1.08-3.079-2.126-6.171-3.334-9.211-.676-1.727-1.348-3.457-2.041-5.18-.026-.064-.14-.03-.119.038.961,3.134,1.931,6.277,3.036,9.356s2.173,6.158,3.313,9.22c.651,1.756,1.348,3.457,2.084,5.158,0,.034.072,0,.064,0C143.821,365.645,142.749,362.549,141.661,359.445Z" transform="translate(-98.662 -272.025)" fill="#263238"/>
      <path id="Path_6760" data-name="Path 6760" d="M108.4,400.416c-.425-.85-.91-2.092-1.357-2.934-.115-.225-.281-.2-.191.034.3.774.523,1.633.816,2.424-.7.068-1.4.119-2.105.2l-2.437.259q-2.377.242-4.771.425-4.835.4-9.683.587a186.755,186.755,0,0,1-19.456-.149c-1.807-.115-3.619-.268-5.422-.476a53.327,53.327,0,0,1-5.3-.8c-.047,0-.064.068,0,.085a30.163,30.163,0,0,0,4.576,1.072q2.437.37,4.895.6c3.257.293,6.536.425,9.806.425,6.489.064,12.987-.157,19.456-.634q2.726-.2,5.439-.468c.91-.089,1.824-.179,2.734-.285A18.582,18.582,0,0,0,108.4,400.416Z" transform="translate(-53.998 -302.087)" fill="#263238"/>
      <path id="Path_6761" data-name="Path 6761" d="M165.23,246.353c-2.93,2.977-6.345,4.253-7.838,6.251s-1.948,5.779-1.948,5.779-.889-4.082-2.649-6.064-8.31-7.565-8.305-9.9,1.191-10.24,3.853-12.758c1.391-1.327,9.577-1.544,15.624-.425,3.785.693,5.724,1.965,5.869,2.573C171.226,237.512,168.054,243.479,165.23,246.353Z" transform="translate(-103.448 -205.065)" fill="#ffa101"/>
      <path id="Path_6762" data-name="Path 6762" d="M165.23,246.353c-2.93,2.977-6.345,4.253-7.838,6.251s-1.948,5.779-1.948,5.779-.889-4.082-2.649-6.064-8.31-7.565-8.305-9.9,1.191-10.24,3.853-12.758c1.391-1.327,9.577-1.544,15.624-.425,3.785.693,5.724,1.965,5.869,2.573C171.226,237.512,168.054,243.479,165.23,246.353Z" transform="translate(-103.448 -205.065)" opacity="0.2"/>
      <path id="Path_6763" data-name="Path 6763" d="M142.5,230.354c-2.662,2.552-3.849,10.436-3.853,12.758a5.688,5.688,0,0,0,1.488,2.828c-1.7-1.939-5.205-5.163-5.767-6.222s4.418-8.879,9.411-9.968a3.075,3.075,0,0,0-1.28.6Z" transform="translate(-97.607 -205.774)" fill="#ffa101"/>
      <path id="Path_6764" data-name="Path 6764" d="M142.5,230.354c-2.662,2.552-3.849,10.436-3.853,12.758a5.688,5.688,0,0,0,1.488,2.828c-1.7-1.939-5.205-5.163-5.767-6.222s4.418-8.879,9.411-9.968a3.075,3.075,0,0,0-1.28.6Z" transform="translate(-97.607 -205.774)" opacity="0.2"/>
      <path id="Path_6765" data-name="Path 6765" d="M151.971,264.9c-3.759.519-9.534-5.707-11.593-10.5-.14-.332.655-3.576,1.433-7.565.464-2.424.923-5.133,1.161-7.655.047-.51,15.331,5.32,15.331,5.32a40.3,40.3,0,0,0-2.441,9.462,6,6,0,0,0,0,1.038v.17C156.011,257.166,155.607,264.4,151.971,264.9Z" transform="translate(-101.075 -211.174)" fill="#eb9481"/>
      <path id="Path_6766" data-name="Path 6766" d="M148.76,239.64c.319,4.3,1.973,14.769,10.33,15.764a9.626,9.626,0,0,0,1.612.064.586.586,0,0,0,0-.174,6.377,6.377,0,0,1,0-1.033,40.063,40.063,0,0,1,2.445-9.466S152.107,240.588,148.76,239.64Z" transform="translate(-105.902 -211.458)" fill="#263238"/>
      <path id="Path_6767" data-name="Path 6767" d="M149.973,186.1c-3.4,4.754-5.732,21-3.109,25.681,3.8,6.8,12.592,10.257,19,5.1,6.209-5,8.884-26.23,5.715-30.742C166.911,179.487,154.991,179.07,149.973,186.1Z" transform="translate(-104.164 -177.748)" fill="#eb9481"/>
      <path id="Path_6768" data-name="Path 6768" d="M180.4,227.924c0-.043-.094.043-.094.085-.089,1.106-.374,2.352-1.408,2.607-.034,0-.034.064,0,.064C180.129,230.642,180.49,228.983,180.4,227.924Z" transform="translate(-123.207 -204.718)" fill="#263238"/>
      <path id="Path_6769" data-name="Path 6769" d="M178.241,224.971c-1.752-.327-2.284,3.2-.659,3.508S179.708,225.239,178.241,224.971Z" transform="translate(-121.906 -203.015)" fill="#263238"/>
      <path id="Path_6770" data-name="Path 6770" d="M196.526,230.159c0-.038.077.068.068.111-.2,1.089-.242,2.369.693,2.879.03,0,0,.072,0,.06C196.088,232.859,196.169,231.158,196.526,230.159Z" transform="translate(-133.221 -206.004)" fill="#263238"/>
      <path id="Path_6771" data-name="Path 6771" d="M197.75,227.827c1.778.132,1.386,3.678-.259,3.559S196.245,227.721,197.75,227.827Z" transform="translate(-133.298 -204.667)" fill="#263238"/>
      <path id="Path_6772" data-name="Path 6772" d="M176.979,219.105a13.932,13.932,0,0,0,1.318.638,2.376,2.376,0,0,0,1.471.391.753.753,0,0,0,.561-.731,1.859,1.859,0,0,0-1.191-1.471,2.756,2.756,0,0,0-1.965-.285.8.8,0,0,0-.2,1.459Z" transform="translate(-121.899 -198.778)" fill="#263238"/>
      <path id="Path_6773" data-name="Path 6773" d="M200.607,218.814a13.506,13.506,0,0,1-1.348-.574,2.486,2.486,0,0,1-1.276-.851.757.757,0,0,1,.179-.906,1.9,1.9,0,0,1,1.892-.068,2.739,2.739,0,0,1,1.505,1.276.8.8,0,0,1-.953,1.123Z" transform="translate(-134.147 -197.984)" fill="#263238"/>
      <path id="Path_6774" data-name="Path 6774" d="M174.425,251.146c.221.3.425.689.821.782a2.976,2.976,0,0,0,1.22-.1.038.038,0,0,1,.038.06,1.488,1.488,0,0,1-1.48.387,1.186,1.186,0,0,1-.714-1.1C174.306,251.117,174.391,251.1,174.425,251.146Z" transform="translate(-120.586 -218.057)" fill="#263238"/>
      <path id="Path_6775" data-name="Path 6775" d="M178.418,228.832a3.738,3.738,0,0,0,2.237,2.028,4.678,4.678,0,0,0,1.327.264,1.342,1.342,0,0,0,.259,0h.242a.272.272,0,0,0,.255-.213h0a.482.482,0,0,0,0-.111h0v-.1c.149-.851.259-2.126.259-2.126.285.2,1.748,1.14,1.79.7a56.582,56.582,0,0,0,.247-11.482.1.1,0,0,0-.2,0c-.455,3.517-.289,7.093-.693,10.631a6.575,6.575,0,0,0-1.654-.821c-.123,0-.17,2.5-.268,2.875a.08.08,0,0,1,0,.038,5.246,5.246,0,0,1-3.674-1.773C178.461,228.674,178.363,228.734,178.418,228.832Z" transform="translate(-122.938 -198.843)" fill="#263238"/>
      <path id="Path_6776" data-name="Path 6776" d="M173.046,193.2c-.055-.744-.4-4.737-1.582-5.065-1.3-.361-2.33,1.059-4.835.991s-4.495-3.147-7.506-2.25c-1.829.544-3.143,1.824-4.589,5.924-1.4,3.98-3.649,8.471-8.565,8.731.4-6.2,2.046-13.974,4.108-16.862,5.018-7.03,16.921-6.464,21.59.187C172.634,186.228,173.1,189.656,173.046,193.2Z" transform="translate(-104.298 -176.966)" fill="#263238"/>
      <path id="Path_6777" data-name="Path 6777" d="M148.629,219.031s-1.012-6.29-3.713-6.153-3.525,8.152-1.476,10.3a2.828,2.828,0,0,0,4.074.281Z" transform="translate(-102.186 -196.075)" fill="#eb9481"/>
      <path id="Path_6778" data-name="Path 6778" d="M147.151,218.291c-.038-.026-.077.03-.047.06,1.412,1.561,1.548,3.636,1.378,5.639a1.562,1.562,0,0,0-1.918-1.4c-.06,0-.051.1,0,.115a1.744,1.744,0,0,1,1.459,1.382,8.434,8.434,0,0,1,.149,1.795c0,.2.332.251.357.038a.158.158,0,0,0,0-.047C149.7,223.654,149.46,219.678,147.151,218.291Z" transform="translate(-104.616 -199.184)" fill="#263238"/>
      <path id="Path_6779" data-name="Path 6779" d="M155.529,187.178C154,178.6,147.024,173.37,137.851,173.37c-13.919,0-25.014,23.883-23.687,32.086,1.2,7.421,7.914,9.441,8.977,10.291,2.475,1.982,4.58,5.754,7.285,8.837,2.241,2.552,8.08,3.355,8.08,3.355.085-1.31-.157-1.433,3.121-4.975,3.623-3.917,8.267-5.626,10.444-8.722C156.58,207.824,156.869,194.705,155.529,187.178Zm-7.791,27.48c-2.93,2.977-6.345,4.253-7.838,6.251s-1.948,5.779-1.948,5.779-.889-4.083-2.649-6.064c-1.22-1.374-4.776-4.508-6.8-7.072h0c-1.722-1.939-5.2-5.154-5.758-6.209s4.406-8.858,9.39-9.964h.021c2.866-.774,9.356-.765,14.344.157,3.785.693,5.724,1.965,5.869,2.573C153.735,205.817,150.562,211.784,147.739,214.658Z" transform="translate(-85.956 -173.37)" fill="#ffa101"/>
      <path id="Path_6780" data-name="Path 6780" d="M129.46,269.88a6.224,6.224,0,0,0,1.106.515,10.252,10.252,0,0,1,1.118.523,4.834,4.834,0,0,1,1,.736,12.036,12.036,0,0,1,.851.919c1.059,1.246,2.046,2.552,3.062,3.827l1.518,1.918c.506.634,1.012,1.276,1.561,1.854a10.377,10.377,0,0,0,4.138,2.411,8.691,8.691,0,0,1-2.352-.736,7.336,7.336,0,0,1-2.058-1.4,47.915,47.915,0,0,1-3.126-3.8l-2.977-3.887c-.251-.319-.5-.646-.774-.931a5.525,5.525,0,0,0-.931-.753,8.888,8.888,0,0,0-1.063-.587A5.531,5.531,0,0,1,129.46,269.88Z" transform="translate(-94.809 -228.838)" fill="#263238"/>
      <path id="Path_6781" data-name="Path 6781" d="M174.31,289.286a14.608,14.608,0,0,1,1.875-2.39c.353-.361.719-.719,1.106-1.046a7.356,7.356,0,0,1,1.25-.88c-.685.753-1.352,1.493-2.045,2.22A29.128,29.128,0,0,1,174.31,289.286Z" transform="translate(-120.586 -237.511)" fill="#263238"/>
      <path id="Path_6782" data-name="Path 6782" d="M131.65,273.62a4.291,4.291,0,0,1,1.7.642,4.206,4.206,0,0,1,.727.591,7.015,7.015,0,0,1,.557.74,13.515,13.515,0,0,0,1.135,1.382c.2.221.425.425.634.638a6.093,6.093,0,0,0,.693.578,5.621,5.621,0,0,1-1.5-1.042,8.389,8.389,0,0,1-1.225-1.374,6.755,6.755,0,0,0-.515-.719,5.06,5.06,0,0,0-.646-.6,4.86,4.86,0,0,0-.748-.476A5.724,5.724,0,0,0,131.65,273.62Z" transform="translate(-96.068 -230.988)" fill="#263238"/>
      <path id="Path_6783" data-name="Path 6783" d="M134.221,248.82a13.117,13.117,0,0,0-.451,1.4,14.114,14.114,0,0,0-.306,1.42,2.555,2.555,0,0,0-.034.349.638.638,0,0,0,.06.293,2.6,2.6,0,0,0,.378.587,3.975,3.975,0,0,0,1.067.978,2.841,2.841,0,0,1-1.255-.812,2.55,2.55,0,0,1-.464-.625.85.85,0,0,1-.1-.425,2.919,2.919,0,0,1,.03-.391,7.329,7.329,0,0,1,.387-1.454A5.53,5.53,0,0,1,134.221,248.82Z" transform="translate(-96.912 -216.734)" fill="#263238"/>
      <path id="Path_6784" data-name="Path 6784" d="M204.09,236.21a5.477,5.477,0,0,1,1.174,2.19c.132.4.23.8.323,1.208.047.2.081.425.119.617a2.437,2.437,0,0,1,.038.663,9.99,9.99,0,0,1-.638,2.432,18.34,18.34,0,0,1-1.016,2.267l.7-2.369a13.7,13.7,0,0,0,.527-2.36,4.558,4.558,0,0,0-.128-1.169c-.068-.4-.157-.8-.247-1.2a10.259,10.259,0,0,0-.336-1.174A4.677,4.677,0,0,0,204.09,236.21Z" transform="translate(-137.702 -209.487)" fill="#263238"/>
      <ellipse id="Ellipse_28" data-name="Ellipse 28" cx="0.549" cy="0.549" rx="0.549" ry="0.549" transform="translate(48.939 51.176)" opacity="0.2"/>
      <path id="Path_6785" data-name="Path 6785" d="M162.283,294.739a16.351,16.351,0,0,1,.876,2.815,5.77,5.77,0,0,1,.157,2.037,11.205,11.205,0,0,1-.464,1.744c-.94,2.977-2.194,6.192-1.408,9.356.081.332.6.191.515-.145-.808-3.232.646-6.5,1.556-9.551a6.8,6.8,0,0,0,.157-3.581,16.683,16.683,0,0,0-.876-2.811c-.132-.31-.646-.174-.515.14Z" transform="translate(-113.05 -242.947)" fill="#263238"/>
      <path id="Path_6786" data-name="Path 6786" d="M173.9,292.669a.553.553,0,1,1-.549-.549A.553.553,0,0,1,173.9,292.669Z" transform="translate(-119.713 -241.62)" opacity="0.2"/>
      <path id="Path_6787" data-name="Path 6787" d="M173.445,293.361a17.517,17.517,0,0,0,.7,6.107,31.211,31.211,0,0,1,1.14,4.07,8.021,8.021,0,0,1-.14,4.367c-.123.319.391.459.515.14a8.056,8.056,0,0,0,.234-4.074,25.347,25.347,0,0,0-1.1-4.253,17.861,17.861,0,0,1-.816-6.353.266.266,0,0,0-.532,0Z" transform="translate(-120.07 -242.19)" fill="#263238"/>
    </g>
    <g id="freepik--Devices--inject-20" transform="translate(10.151 122.789)">
      <path id="Path_6788" data-name="Path 6788" d="M288.268,441.655H256.25v-2.488l32.018-1.038Z" transform="translate(-175.094 -386.316)" fill="#37474f"/>
      <path id="Path_6789" data-name="Path 6789" d="M327.767,360.168H268.83L278.2,316.29h58.937Z" transform="translate(-182.324 -316.29)" fill="#455a64"/>
      <path id="Path_6790" data-name="Path 6790" d="M332.891,360.168H273.95l9.373-43.878h58.941Z" transform="translate(-185.267 -316.29)" fill="#37474f"/>
      <path id="Path_6791" data-name="Path 6791" d="M335.932,369.17H334.55l2.1-9.841h1.382Z" transform="translate(-220.096 -341.027)" fill="#263238"/>
      <path id="Path_6792" data-name="Path 6792" d="M342.342,369.17H340.96l2.1-9.841h1.382Z" transform="translate(-223.78 -341.027)" fill="#263238"/>
      <path id="Path_6793" data-name="Path 6793" d="M348.752,369.17H347.37l2.1-9.841h1.382Z" transform="translate(-227.464 -341.027)" fill="#263238"/>
      <path id="Path_6794" data-name="Path 6794" d="M355.172,369.17H353.79l2.1-9.841h1.382Z" transform="translate(-231.154 -341.027)" fill="#263238"/>
      <path id="Path_6795" data-name="Path 6795" d="M361.582,369.17H360.2l2.1-9.841h1.382Z" transform="translate(-234.838 -341.027)" fill="#263238"/>
      <path id="Path_6796" data-name="Path 6796" d="M367.992,369.17H366.61l2.1-9.841h1.382Z" transform="translate(-238.522 -341.027)" fill="#263238"/>
      <path id="Path_6797" data-name="Path 6797" d="M374.412,369.17H373.03l2.1-9.841h1.382Z" transform="translate(-242.212 -341.027)" fill="#263238"/>
      <path id="Path_6798" data-name="Path 6798" d="M334.17,442.109H305.18v-2.254l28.99-.936Z" transform="translate(-203.216 -386.771)" fill="#455a64"/>
      <path id="Path_6799" data-name="Path 6799" d="M358.177,413.179H342.613L333.24,388.59H348.8Z" transform="translate(-219.343 -357.844)" fill="#455a64"/>
      <path id="Path_6800" data-name="Path 6800" d="M364.207,413.179H348.643L339.27,388.59h15.564Z" transform="translate(-222.809 -357.844)" fill="#263238"/>
      <path id="Path_6801" data-name="Path 6801" d="M79.913,360.168H98.1L88.728,316.29H70.54Z" transform="translate(-68.358 -316.29)" fill="#455a64"/>
      <path id="Path_6802" data-name="Path 6802" d="M74.783,360.168H92.975L83.6,316.29H65.41Z" transform="translate(-65.41 -316.29)" fill="#37474f"/>
      <path id="Path_6803" data-name="Path 6803" d="M90.447,369.17h.259l-2.1-9.841H88.35Z" transform="translate(-78.595 -341.027)" fill="#263238"/>
      <path id="Path_6804" data-name="Path 6804" d="M91.737,369.17H92l-2.1-9.841H89.64Z" transform="translate(-79.336 -341.027)" fill="#263238"/>
      <path id="Path_6805" data-name="Path 6805" d="M93.031,369.17h.259l-2.1-9.841H90.93Z" transform="translate(-80.077 -341.027)" fill="#263238"/>
      <path id="Path_6806" data-name="Path 6806" d="M94.327,369.17h.259l-2.1-9.841H92.23Z" transform="translate(-80.825 -341.027)" fill="#263238"/>
      <path id="Path_6807" data-name="Path 6807" d="M95.621,369.17h.255l-2.1-9.841H93.52Z" transform="translate(-81.566 -341.027)" fill="#263238"/>
      <path id="Path_6808" data-name="Path 6808" d="M96.917,369.17h.259l-2.1-9.841H94.82Z" transform="translate(-82.313 -341.027)" fill="#263238"/>
      <path id="Path_6809" data-name="Path 6809" d="M98.207,369.17h.259l-2.1-9.841H96.11Z" transform="translate(-83.055 -341.027)" fill="#263238"/>
      <path id="Path_6810" data-name="Path 6810" d="M99.507,369.17h.259l-2.1-9.841H97.41Z" transform="translate(-83.802 -341.027)" fill="#263238"/>
      <path id="Path_6811" data-name="Path 6811" d="M86.63,442.109h21.756v-2.254L86.63,438.92Z" transform="translate(-77.606 -386.771)" fill="#455a64"/>
      <path id="Path_6812" data-name="Path 6812" d="M68.1,413.179h8.331l9.377-24.589H77.473Z" transform="translate(-66.956 -357.844)" fill="#455a64"/>
      <path id="Path_6813" data-name="Path 6813" d="M68.1,413.179h5.771l9.373-24.589H77.473Z" transform="translate(-66.956 -357.844)" fill="#263238"/>
      <path id="Path_6814" data-name="Path 6814" d="M219.683,436.412H198.548c-1.8,0,.8-5.133,7.382-7.1S221.745,434.486,219.683,436.412Z" transform="translate(-141.61 -381.052)" fill="#37474f"/>
      <path id="Path_6815" data-name="Path 6815" d="M229.48,438.878a6.532,6.532,0,0,1,.948-3.364,5.665,5.665,0,0,1,1.14-1.365,4.78,4.78,0,0,1,1.514-.889,8.888,8.888,0,0,0-1.276,1.131,7.524,7.524,0,0,0-1,1.344,10.7,10.7,0,0,0-.757,1.514A15.623,15.623,0,0,0,229.48,438.878Z" transform="translate(-159.708 -383.518)" fill="#263238"/>
      <path id="Path_6816" data-name="Path 6816" d="M235.36,435a11.832,11.832,0,0,1,3.555,1.7,7.019,7.019,0,0,1,1.467,1.352,3.015,3.015,0,0,1,.765,1.824,3.853,3.853,0,0,0-1.012-1.607,10.426,10.426,0,0,0-1.467-1.225C237.618,436.3,236.483,435.655,235.36,435Z" transform="translate(-163.087 -384.518)" fill="#263238"/>
    </g>
    <g id="freepik--speech-bubble--inject-20" transform="translate(144.218 106.175)">
      <path id="Path_6817" data-name="Path 6817" d="M417.777,295.74a16.492,16.492,0,0,1-27.553,10.432L382,307.379l4.125-7.132A16.492,16.492,0,1,1,417.8,295.74Z" transform="translate(-381.434 -277.399)" fill="#fff"/>
      <path id="Path_6818" data-name="Path 6818" d="M417.013,295.563a16.586,16.586,0,0,1-3.33,8.356,19.132,19.132,0,0,1-1.493,1.7,18.59,18.59,0,0,1-1.744,1.476,16.717,16.717,0,0,1-8.416,3.27,16.429,16.429,0,0,1-2.288.047,15.173,15.173,0,0,1-2.284-.238,16.649,16.649,0,0,1-8.144-4.006l.2.06L381.27,307.5l-.6.094.3-.527,4.1-7.144v.281a16.67,16.67,0,0,1,1.012-14.7,16.6,16.6,0,0,1,26.017-3.551A16.585,16.585,0,0,1,417.013,295.563Zm0,0A16.343,16.343,0,0,0,391.5,280.394a16.955,16.955,0,0,0-4.933,5.379,16.266,16.266,0,0,0-2.092,6.979,16.466,16.466,0,0,0,1.161,7.183l.06.145-.081.136-4.151,7.119-.293-.425,8.254-1.157h.115l.081.077a16.254,16.254,0,0,0,7.9,4.044,14.1,14.1,0,0,0,2.237.272,15.777,15.777,0,0,0,6.66-.974,15.232,15.232,0,0,0,3.976-2.126,14.752,14.752,0,0,0,3.24-3.155A16.585,16.585,0,0,0,417.013,295.563Z" transform="translate(-380.67 -277.222)" fill="#263238"/>
      <path id="Path_6819" data-name="Path 6819" d="M412.894,291,402.05,309.788h21.692Z" transform="translate(-392.958 -285.141)" fill="#ffa101"/>
      <path id="Path_6820" data-name="Path 6820" d="M416.078,297.4l-8.488,14.705h16.976Z" transform="translate(-396.142 -288.819)" fill="#fff"/>
      <path id="Path_6821" data-name="Path 6821" d="M425.53,307.41h1.718l-.115,6.336h-1.488Z" transform="translate(-406.453 -294.572)" fill="#ffa101"/>
      <rect id="Rectangle_2183" data-name="Rectangle 2183" width="1.488" height="1.488" transform="translate(19.192 19.969)" fill="#ffa101"/>
    </g>
    <g id="freepik--Bugs--inject-20" transform="translate(102.517 122.721)">
      <path id="Path_6822" data-name="Path 6822" d="M398.51,396.19l-8.08,3.155s.089.3.281.77c.072.162.153.349.247.544a11.3,11.3,0,0,0,.787,1.446l.344.506a6.97,6.97,0,0,0,1.076,1.161,4,4,0,0,0,.553.425,3.827,3.827,0,0,0,5.66-2.207,5.127,5.127,0,0,0,.132-.685,7.229,7.229,0,0,0,0-1.578c-.03-.2-.055-.425-.089-.6a11.1,11.1,0,0,0-.4-1.6c-.064-.208-.128-.4-.191-.566C398.646,396.475,398.51,396.19,398.51,396.19Zm-1.6,7.149-.476.183-1.931-4.954.472-.187Z" transform="translate(-344.579 -362.144)" fill="#ffa101"/>
      <path id="Path_6823" data-name="Path 6823" d="M397.7,392.178l-8.122,3.168c-.621-1.586.493-3.747,2.858-4.678S397.087,390.587,397.7,392.178Z" transform="translate(-343.993 -358.748)" fill="#ffa101"/>
      <path id="Path_6824" data-name="Path 6824" d="M388.282,404.428l-1.561.608-1.841-1.463.366-.464,1.573,1.255,1.25-.489Z" transform="translate(-341.389 -366.121)" fill="#ffa101"/>
      <rect id="Rectangle_2184" data-name="Rectangle 2184" width="2.968" height="0.591" transform="matrix(0.932, -0.363, 0.363, 0.932, 45.132, 40.762)" fill="#ffa101"/>
      <path id="Path_6825" data-name="Path 6825" d="M393.373,415.941l-.553-.208.638-1.693,1.82-.71.213.553-1.573.612Z" transform="translate(-345.952 -371.995)" fill="#ffa101"/>
      <path id="Path_6826" data-name="Path 6826" d="M410.642,395.085l-1.565.608-.217-.549,1.25-.489.31-1.986.583.089Z" transform="translate(-355.171 -360.121)" fill="#ffa101"/>
      <rect id="Rectangle_2185" data-name="Rectangle 2185" width="2.968" height="0.591" transform="matrix(0.932, -0.363, 0.363, 0.932, 54.084, 37.268)" fill="#ffa101"/>
      <path id="Path_6827" data-name="Path 6827" d="M413.152,408.564l-1.382-.693-1.573.612-.217-.553,1.82-.71,1.616.812Z" transform="translate(-355.815 -368.483)" fill="#ffa101"/>
      <path id="Path_6828" data-name="Path 6828" d="M389.966,390.78l-3.181-1.4-.855-2.2.549-.213.77,1.969,2.956,1.3Z" transform="translate(-341.992 -356.845)" fill="#ffa101"/>
      <path id="Path_6829" data-name="Path 6829" d="M399.81,386.66l-.54-.238,1.3-2.956-.77-1.969.553-.217.855,2.2Z" transform="translate(-349.659 -353.574)" fill="#ffa101"/>
      <path id="Path_6830" data-name="Path 6830" d="M298.032,371.763l-6.8-5.414s-.213.234-.523.634c-.1.145-.221.306-.344.485a10.514,10.514,0,0,0-.85,1.408c-.089.179-.179.366-.264.553a6.749,6.749,0,0,0-.468,1.51,4.182,4.182,0,0,0-.081.685,3.8,3.8,0,0,0,4.75,3.789,4.8,4.8,0,0,0,.655-.23,6.853,6.853,0,0,0,1.365-.8c.162-.128.327-.251.476-.379a10.574,10.574,0,0,0,1.182-1.148c.149-.157.281-.31.391-.451A8.172,8.172,0,0,0,298.032,371.763Zm-6.979,2.2-.4-.319,3.309-4.151.4.315Z" transform="translate(-286.108 -344.993)" fill="#ffa101"/>
      <path id="Path_6831" data-name="Path 6831" d="M302.454,369.169l-6.8-5.439c1.063-1.331,3.491-1.454,5.477.128S303.513,367.838,302.454,369.169Z" transform="translate(-290.105 -342.896)" fill="#ffa101"/>
      <path id="Path_6832" data-name="Path 6832" d="M291.91,365.242,290.6,364.2l.34-2.326.583.085-.289,1.99,1.046.833Z" transform="translate(-287.202 -342.419)" fill="#ffa101"/>
      <rect id="Rectangle_2186" data-name="Rectangle 2186" width="0.591" height="2.968" transform="matrix(0.623, -0.782, 0.782, 0.623, 1.346, 23.006)" fill="#ffa101"/>
      <path id="Path_6833" data-name="Path 6833" d="M282.7,376.336l-.094-.583,1.782-.293,1.527,1.216-.37.464-1.318-1.055Z" transform="translate(-282.61 -350.229)" fill="#ffa101"/>
      <path id="Path_6834" data-name="Path 6834" d="M308.83,381.25l-1.31-1.046.366-.464,1.05.838,1.875-.727.213.549Z" transform="translate(-296.927 -352.689)" fill="#ffa101"/>
      <rect id="Rectangle_2187" data-name="Rectangle 2187" width="0.591" height="2.968" transform="matrix(0.623, -0.782, 0.782, 0.623, 8.859, 29.001)" fill="#ffa101"/>
      <path id="Path_6835" data-name="Path 6835" d="M300.492,389l-.094-1.544L299.08,386.4l.366-.459,1.527,1.216.111,1.8Z" transform="translate(-292.076 -356.253)" fill="#ffa101"/>
      <path id="Path_6836" data-name="Path 6836" d="M303.321,359.674l-.391-3.449,1.471-1.846.464.37-1.318,1.65.361,3.211Z" transform="translate(-294.289 -338.114)" fill="#ffa101"/>
      <path id="Path_6837" data-name="Path 6837" d="M308.054,366.743l-.064-.587,3.206-.361,1.318-1.654.464.366-1.471,1.846Z" transform="translate(-297.197 -343.723)" fill="#ffa101"/>
      <path id="Path_6838" data-name="Path 6838" d="M361.76,324.707l5.282,6.889s.264-.174.663-.489c.132-.111.289-.242.451-.387a10.32,10.32,0,0,0,1.169-1.161c.128-.149.259-.31.387-.468a6.885,6.885,0,0,0,.816-1.357,4.122,4.122,0,0,0,.247-.646,3.8,3.8,0,0,0-3.7-4.818,4.821,4.821,0,0,0-.693.06,7.127,7.127,0,0,0-1.514.447c-.191.081-.379.166-.557.251a11.086,11.086,0,0,0-1.425.829q-.276.179-.485.344A7.61,7.61,0,0,0,361.76,324.707Zm7.3-.425.306.4-4.214,3.232-.306-.4Z" transform="translate(-328.101 -319.659)" fill="#ffa101"/>
      <path id="Path_6839" data-name="Path 6839" d="M359.052,328.93l5.316,6.919c-1.352,1.038-3.742.57-5.286-1.446S357.7,329.963,359.052,328.93Z" transform="translate(-325.928 -323.487)" fill="#ffa101"/>
      <path id="Path_6840" data-name="Path 6840" d="M375.352,341.13l1.021,1.331-.893,2.177-.549-.225.765-1.863-.816-1.063Z" transform="translate(-335.641 -330.499)" fill="#ffa101"/>
      <rect id="Rectangle_2188" data-name="Rectangle 2188" width="0.591" height="2.968" transform="matrix(0.793, -0.609, 0.609, 0.793, 40.741, 9.267)" fill="#ffa101"/>
      <path id="Path_6841" data-name="Path 6841" d="M384.271,334.269l-.047.591-1.807-.145-1.186-1.548.472-.357,1.025,1.335Z" transform="translate(-339.291 -325.717)" fill="#ffa101"/>
      <path id="Path_6842" data-name="Path 6842" d="M359.66,323.95l1.025,1.331-.472.362-.812-1.063-2,.255-.072-.587Z" transform="translate(-325.555 -320.625)" fill="#ffa101"/>
      <rect id="Rectangle_2189" data-name="Rectangle 2189" width="0.591" height="2.968" transform="matrix(0.793, -0.609, 0.609, 0.793, 34.893, 1.647)" fill="#ffa101"/>
      <path id="Path_6843" data-name="Path 6843" d="M371.91,316.236l-.281,1.522,1.029,1.34-.468.361L371,317.908l.332-1.778Z" transform="translate(-333.411 -316.13)" fill="#ffa101"/>
      <path id="Path_6844" data-name="Path 6844" d="M361.768,341.447l-.451,3.445-1.875,1.437-.361-.468,1.68-1.289.421-3.2Z" transform="translate(-326.56 -330.636)" fill="#ffa101"/>
      <path id="Path_6845" data-name="Path 6845" d="M354.876,336.581l-.077.587-3.2-.421-1.68,1.289-.357-.472,1.871-1.433Z" transform="translate(-321.089 -327.625)" fill="#ffa101"/>
    </g>
  </g>
</svg>
