<svg id="Group_131" data-name="Group 131" xmlns="http://www.w3.org/2000/svg" width="98.424" height="92.964" viewBox="0 0 98.424 92.964">
  <g id="freepik--Characters--inject-14" transform="translate(8.544 10.368)">
    <path id="Path_1770" data-name="Path 1770" d="M213.285,155.926c1.6,0,2.745-.075,2.848-.082l-.22-3.156c-.069,0-7.315.473-11.041-1.029-2.964-1.208-6.237-9.545-7.685-16.908-.919-4.666-.419-6.134-.034-6.6.082-.1.3-.364,1.139-.364h2.889c.837,2.518,2.175,5.05,4.193,5.05H211.2v-3.15h-5.592a11.993,11.993,0,0,1-1.729-3.9l-.322-1.153h-5.263a4.371,4.371,0,0,0-3.582,1.523c-1.372,1.654-1.558,4.494-.624,9.215a59.735,59.735,0,0,0,3.342,11.1c1.9,4.474,4.007,7.212,6.258,8.124C206.457,155.714,210.554,155.926,213.285,155.926Z" transform="translate(-193.506 -122.523)" fill="#ffe227"/>
    <path id="Path_1771" data-name="Path 1771" d="M212.55,131.98h4.632v3.163h-3.918Z" transform="translate(-199.482 -124.83)" opacity="0.2"/>
    <path id="Path_1772" data-name="Path 1772" d="M224.484,168.683c-.124,0-1.249.082-2.848.082h-.83l-.686-3.17c2.3.069,4.117-.048,4.172-.055Z" transform="translate(-201.858 -135.362)" opacity="0.2"/>
    <path id="Path_1773" data-name="Path 1773" d="M265.208,155.927c-1.6,0-2.745-.075-2.848-.082l.213-3.156c.075,0,7.322.473,11.041-1.029,2.971-1.208,6.237-9.545,7.692-16.908.913-4.666.412-6.134,0-6.6-.082-.1-.3-.364-1.139-.364h-2.889c-.837,2.518-2.182,5.05-4.193,5.05h-5.833v-3.15h5.592a11.974,11.974,0,0,0,1.736-3.9l.322-1.153h5.263a4.378,4.378,0,0,1,3.582,1.523c1.372,1.654,1.551,4.494.624,9.215a59.737,59.737,0,0,1-3.349,11.1c-1.894,4.474-4,7.212-6.251,8.124C272.028,155.714,267.932,155.927,265.208,155.927Z" transform="translate(-215.114 -122.523)" fill="#ffe227"/>
    <path id="Path_1774" data-name="Path 1774" d="M274.172,131.98H269.54v3.163h3.918Z" transform="translate(-217.367 -124.83)" opacity="0.2"/>
    <path id="Path_1775" data-name="Path 1775" d="M262.36,168.683c.124,0,1.249.082,2.848.082h.83l.686-3.17c-2.3.069-4.117-.048-4.172-.055Z" transform="translate(-215.114 -135.362)" opacity="0.2"/>
    <path id="Path_1776" data-name="Path 1776" d="M220.38,204.514v1.77h32.985v-1.77h-2.827l-2.1-3.019-9.6-3.822V178.94h-3.925v18.733l-9.6,3.822-2.107,3.019Z" transform="translate(-201.94 -139.567)" fill="#ffe227"/>
    <rect id="Rectangle_71" data-name="Rectangle 71" width="6.093" height="1.969" transform="translate(37.983 41.871) rotate(180)" fill="#ffe227"/>
    <path id="Path_1777" data-name="Path 1777" d="M239.98,180.966l6.093-.268v-.988H239.98Z" transform="translate(-208.09 -139.808)" opacity="0.2"/>
    <path id="Path_1778" data-name="Path 1778" d="M215,121.56s1.544,25.519,5.565,32.573,12.605,7.651,14.609,7.651,10.581-.6,14.6-7.651,5.565-32.573,5.565-32.573Z" transform="translate(-200.251 -121.56)" fill="#ffe227"/>
    <path id="Path_1779" data-name="Path 1779" d="M232.177,161.5c-3.431-.583-8.667-2.326-11.542-7.363-4.021-7.054-5.565-32.573-5.565-32.573h3.795c.522,5.359,1.544,25.828,4.453,31.784C225.829,158.552,231.737,161.345,232.177,161.5Z" transform="translate(-200.273 -121.56)" fill="#fff" opacity="0.3"/>
    <path id="Path_1780" data-name="Path 1780" d="M251.831,215.278H224.5l.755-1.084,25.156-.954Z" transform="translate(-203.232 -150.331)" opacity="0.2"/>
    <path id="Path_1781" data-name="Path 1781" d="M241.21,133.3l2.168,4.4,4.844.7-3.506,3.417.83,4.831-4.337-2.278-4.337,2.278.83-4.831L234.19,138.4l4.851-.7Z" transform="translate(-206.273 -125.244)" opacity="0.1"/>
  </g>
  <g id="freepik--Sparkles--inject-14">
    <path id="Path_1900" data-name="Path 1900" d="M275.956,232.089l-2.436.446-.542,2.566-.542-2.566L270,232.089l2.429-.6.549-2.422.556,2.422Z" transform="translate(-208.967 -145.404)" fill="#ffc727"/>
    <path id="Path_1901" data-name="Path 1901" d="M235.809,112.842l-2.429.453-.549,2.559-.542-2.559-2.429-.453,2.422-.59.549-2.422.556,2.422Z" transform="translate(-196.37 -107.511)" fill="#ffc727"/>
    <path id="Path_1902" data-name="Path 1902" d="M205.879,200.629l-2.429.446-.542,2.566-.542-2.566-2.436-.453,2.422-.59.556-2.422.549,2.422Z" transform="translate(-186.978 -135.397)" fill="#ffc727"/>
    <path id="Path_1903" data-name="Path 1903" d="M293.279,175.039l-2.429.446-.542,2.566-.549-2.566-2.429-.446,2.422-.6.556-2.422.549,2.422Z" transform="translate(-214.405 -127.271)" fill="#ffc727"/>
    <path id="Path_1904" data-name="Path 1904" d="M322.968,163.428l-1.359.254-.3,1.434L321,163.682l-1.359-.254L321,163.1l.309-1.359.309,1.359Z" transform="translate(-224.544 -124.001)" fill="#ffc727"/>
    <path id="Path_1905" data-name="Path 1905" d="M237.178,228.118l-1.359.247-.309,1.434-.3-1.434-1.359-.247,1.352-.336.309-1.352.309,1.352Z" transform="translate(-197.622 -144.576)" fill="#ffc727"/>
    <path id="Path_1906" data-name="Path 1906" d="M269.1,116.081l-1.359.254-.3,1.434-.309-1.434-1.359-.254,1.359-.329.309-1.352.309,1.352Z" transform="translate(-207.639 -108.945)" fill="#ffc727"/>
    <path id="Path_1907" data-name="Path 1907" d="M307.758,197.218l-1.359.247-.309,1.434-.3-1.434-1.359-.247,1.352-.336.309-1.352.309,1.352Z" transform="translate(-219.771 -134.726)" fill="#ffc727"/>
    <path id="Path_1908" data-name="Path 1908" d="M291.638,201.231l-1.359.254-.3,1.434-.309-1.434-1.359-.254,1.352-.329.316-1.352.309,1.352Z" transform="translate(-214.713 -136.002)" fill="#ffc727"/>
    <path id="Path_1909" data-name="Path 1909" d="M194.078,217.161l-1.359.254-.309,1.434-.3-1.434-1.359-.254,1.352-.329.309-1.352.309,1.352Z" transform="translate(-184.097 -141.139)" fill="#ffc727"/>
    <path id="Path_1910" data-name="Path 1910" d="M204.858,158.608l-1.359.254-.309,1.427-.3-1.427-1.359-.254,1.352-.329.309-1.359.309,1.359Z" transform="translate(-187.48 -122.471)" fill="#ffc727"/>
    <path id="Path_1911" data-name="Path 1911" d="M284.842,211.34a.4.4,0,1,0,.346.395A.4.4,0,0,0,284.842,211.34Z" transform="translate(-213.516 -139.734)" fill="#ffc727"/>
    <path id="Path_1912" data-name="Path 1912" d="M191.242,125.85a.4.4,0,1,0,.346.395A.4.4,0,0,0,191.242,125.85Z" transform="translate(-184.142 -112.538)" fill="#ffc727"/>
    <path id="Path_1913" data-name="Path 1913" d="M304.272,156.5a.4.4,0,1,0,.346.395A.4.4,0,0,0,304.272,156.5Z" transform="translate(-219.613 -122.332)" fill="#ffc727"/>
    <path id="Path_1914" data-name="Path 1914" d="M187.752,199a.4.4,0,1,0,.346.395A.4.4,0,0,0,187.752,199Z" transform="translate(-183.047 -135.819)" fill="#ffc727"/>
    <path id="Path_1915" data-name="Path 1915" d="M181.291,171.21a.281.281,0,1,0,.238.278A.281.281,0,0,0,181.291,171.21Z" transform="translate(-181.054 -126.999)" fill="#ffc727"/>
    <path id="Path_1916" data-name="Path 1916" d="M246.1,224.19a.281.281,0,1,0,.281.281A.281.281,0,0,0,246.1,224.19Z" transform="translate(-201.379 -143.873)" fill="#ffc727"/>
    <path id="Path_1917" data-name="Path 1917" d="M214.611,241.81a.281.281,0,1,0,.238.278A.281.281,0,0,0,214.611,241.81Z" transform="translate(-191.51 -149.402)" fill="#ffc727"/>
    <path id="Path_1918" data-name="Path 1918" d="M272.455,217a.762.762,0,1,0,.69.758A.762.762,0,0,0,272.455,217Z" transform="translate(-209.521 -141.616)" fill="#ffc727"/>
    <path id="Path_1919" data-name="Path 1919" d="M245.525,106.45a.762.762,0,1,0,.689.758.762.762,0,0,0-.689-.758Z" transform="translate(-201.069 -106.45)" fill="#ffc727"/>
    <path id="Path_1920" data-name="Path 1920" d="M219.575,238.07a.755.755,0,1,0,.755.755.755.755,0,0,0-.755-.755Z" transform="translate(-192.905 -148.228)" fill="#ffc727"/>
  </g>
</svg>
