<svg xmlns="http://www.w3.org/2000/svg" width="1120" height="264" viewBox="0 0 1120 264">
  <g id="Group_380" data-name="Group 380" transform="translate(-279 -137)">
    <rect id="Rectangle_1228" data-name="Rectangle 1228" width="1118" height="264" rx="10" transform="translate(280 137)" fill="#ff921a"/>
    <g id="Group_131" data-name="Group 131" transform="translate(915.172 150.036)">
      <g id="freepik--Characters--inject-14" transform="translate(8.544 10.368)">
        <path id="Path_1770" data-name="Path 1770" d="M213.285,155.926c1.6,0,2.745-.075,2.848-.082l-.22-3.156c-.069,0-7.315.473-11.041-1.029-2.964-1.208-6.237-9.545-7.685-16.908-.919-4.666-.419-6.134-.034-6.6.082-.1.3-.364,1.139-.364h2.889c.837,2.518,2.175,5.05,4.193,5.05H211.2v-3.15h-5.592a11.993,11.993,0,0,1-1.729-3.9l-.322-1.153h-5.263a4.371,4.371,0,0,0-3.582,1.523c-1.372,1.654-1.558,4.494-.624,9.215a59.735,59.735,0,0,0,3.342,11.1c1.9,4.474,4.007,7.212,6.258,8.124C206.457,155.714,210.554,155.926,213.285,155.926Z" transform="translate(-193.506 -122.523)" fill="#ffe227"/>
        <path id="Path_1771" data-name="Path 1771" d="M212.55,131.98h4.632v3.163h-3.918Z" transform="translate(-199.482 -124.83)" opacity="0.2"/>
        <path id="Path_1772" data-name="Path 1772" d="M224.484,168.683c-.124,0-1.249.082-2.848.082h-.83l-.686-3.17c2.3.069,4.117-.048,4.172-.055Z" transform="translate(-201.858 -135.362)" opacity="0.2"/>
        <path id="Path_1773" data-name="Path 1773" d="M265.208,155.927c-1.6,0-2.745-.075-2.848-.082l.213-3.156c.075,0,7.322.473,11.041-1.029,2.971-1.208,6.237-9.545,7.692-16.908.913-4.666.412-6.134,0-6.6-.082-.1-.3-.364-1.139-.364h-2.889c-.837,2.518-2.182,5.05-4.193,5.05h-5.833v-3.15h5.592a11.974,11.974,0,0,0,1.736-3.9l.322-1.153h5.263a4.378,4.378,0,0,1,3.582,1.523c1.372,1.654,1.551,4.494.624,9.215a59.737,59.737,0,0,1-3.349,11.1c-1.894,4.474-4,7.212-6.251,8.124C272.028,155.714,267.932,155.927,265.208,155.927Z" transform="translate(-215.114 -122.523)" fill="#ffe227"/>
        <path id="Path_1774" data-name="Path 1774" d="M274.172,131.98H269.54v3.163h3.918Z" transform="translate(-217.367 -124.83)" opacity="0.2"/>
        <path id="Path_1775" data-name="Path 1775" d="M262.36,168.683c.124,0,1.249.082,2.848.082h.83l.686-3.17c-2.3.069-4.117-.048-4.172-.055Z" transform="translate(-215.114 -135.362)" opacity="0.2"/>
        <path id="Path_1776" data-name="Path 1776" d="M220.38,204.514v1.77h32.985v-1.77h-2.827l-2.1-3.019-9.6-3.822V178.94h-3.925v18.733l-9.6,3.822-2.107,3.019Z" transform="translate(-201.94 -139.567)" fill="#ffe227"/>
        <rect id="Rectangle_71" data-name="Rectangle 71" width="6.093" height="1.969" transform="translate(37.983 41.871) rotate(180)" fill="#ffe227"/>
        <path id="Path_1777" data-name="Path 1777" d="M239.98,180.966l6.093-.268v-.988H239.98Z" transform="translate(-208.09 -139.808)" opacity="0.2"/>
        <path id="Path_1778" data-name="Path 1778" d="M215,121.56s1.544,25.519,5.565,32.573,12.605,7.651,14.609,7.651,10.581-.6,14.6-7.651,5.565-32.573,5.565-32.573Z" transform="translate(-200.251 -121.56)" fill="#ffe227"/>
        <path id="Path_1779" data-name="Path 1779" d="M232.177,161.5c-3.431-.583-8.667-2.326-11.542-7.363-4.021-7.054-5.565-32.573-5.565-32.573h3.795c.522,5.359,1.544,25.828,4.453,31.784C225.829,158.552,231.737,161.345,232.177,161.5Z" transform="translate(-200.273 -121.56)" fill="#fff" opacity="0.3"/>
        <path id="Path_1780" data-name="Path 1780" d="M251.831,215.278H224.5l.755-1.084,25.156-.954Z" transform="translate(-203.232 -150.331)" opacity="0.2"/>
        <path id="Path_1781" data-name="Path 1781" d="M241.21,133.3l2.168,4.4,4.844.7-3.506,3.417.83,4.831-4.337-2.278-4.337,2.278.83-4.831L234.19,138.4l4.851-.7Z" transform="translate(-206.273 -125.244)" opacity="0.1"/>
      </g>
      <g id="freepik--Sparkles--inject-14">
        <path id="Path_1900" data-name="Path 1900" d="M275.956,232.089l-2.436.446-.542,2.566-.542-2.566L270,232.089l2.429-.6.549-2.422.556,2.422Z" transform="translate(-208.967 -145.404)" fill="#ffc727"/>
        <path id="Path_1901" data-name="Path 1901" d="M235.809,112.842l-2.429.453-.549,2.559-.542-2.559-2.429-.453,2.422-.59.549-2.422.556,2.422Z" transform="translate(-196.37 -107.511)" fill="#ffc727"/>
        <path id="Path_1902" data-name="Path 1902" d="M205.879,200.629l-2.429.446-.542,2.566-.542-2.566-2.436-.453,2.422-.59.556-2.422.549,2.422Z" transform="translate(-186.978 -135.397)" fill="#ffc727"/>
        <path id="Path_1903" data-name="Path 1903" d="M293.279,175.039l-2.429.446-.542,2.566-.549-2.566-2.429-.446,2.422-.6.556-2.422.549,2.422Z" transform="translate(-214.405 -127.271)" fill="#ffc727"/>
        <path id="Path_1904" data-name="Path 1904" d="M322.968,163.428l-1.359.254-.3,1.434L321,163.682l-1.359-.254L321,163.1l.309-1.359.309,1.359Z" transform="translate(-224.544 -124.001)" fill="#ffc727"/>
        <path id="Path_1905" data-name="Path 1905" d="M237.178,228.118l-1.359.247-.309,1.434-.3-1.434-1.359-.247,1.352-.336.309-1.352.309,1.352Z" transform="translate(-197.622 -144.576)" fill="#ffc727"/>
        <path id="Path_1906" data-name="Path 1906" d="M269.1,116.081l-1.359.254-.3,1.434-.309-1.434-1.359-.254,1.359-.329.309-1.352.309,1.352Z" transform="translate(-207.639 -108.945)" fill="#ffc727"/>
        <path id="Path_1907" data-name="Path 1907" d="M307.758,197.218l-1.359.247-.309,1.434-.3-1.434-1.359-.247,1.352-.336.309-1.352.309,1.352Z" transform="translate(-219.771 -134.726)" fill="#ffc727"/>
        <path id="Path_1908" data-name="Path 1908" d="M291.638,201.231l-1.359.254-.3,1.434-.309-1.434-1.359-.254,1.352-.329.316-1.352.309,1.352Z" transform="translate(-214.713 -136.002)" fill="#ffc727"/>
        <path id="Path_1909" data-name="Path 1909" d="M194.078,217.161l-1.359.254-.309,1.434-.3-1.434-1.359-.254,1.352-.329.309-1.352.309,1.352Z" transform="translate(-184.097 -141.139)" fill="#ffc727"/>
        <path id="Path_1910" data-name="Path 1910" d="M204.858,158.608l-1.359.254-.309,1.427-.3-1.427-1.359-.254,1.352-.329.309-1.359.309,1.359Z" transform="translate(-187.48 -122.471)" fill="#ffc727"/>
        <path id="Path_1911" data-name="Path 1911" d="M284.842,211.34a.4.4,0,1,0,.346.395A.4.4,0,0,0,284.842,211.34Z" transform="translate(-213.516 -139.734)" fill="#ffc727"/>
        <path id="Path_1912" data-name="Path 1912" d="M191.242,125.85a.4.4,0,1,0,.346.395A.4.4,0,0,0,191.242,125.85Z" transform="translate(-184.142 -112.538)" fill="#ffc727"/>
        <path id="Path_1913" data-name="Path 1913" d="M304.272,156.5a.4.4,0,1,0,.346.395A.4.4,0,0,0,304.272,156.5Z" transform="translate(-219.613 -122.332)" fill="#ffc727"/>
        <path id="Path_1914" data-name="Path 1914" d="M187.752,199a.4.4,0,1,0,.346.395A.4.4,0,0,0,187.752,199Z" transform="translate(-183.047 -135.819)" fill="#ffc727"/>
        <path id="Path_1915" data-name="Path 1915" d="M181.291,171.21a.281.281,0,1,0,.238.278A.281.281,0,0,0,181.291,171.21Z" transform="translate(-181.054 -126.999)" fill="#ffc727"/>
        <path id="Path_1916" data-name="Path 1916" d="M246.1,224.19a.281.281,0,1,0,.281.281A.281.281,0,0,0,246.1,224.19Z" transform="translate(-201.379 -143.873)" fill="#ffc727"/>
        <path id="Path_1917" data-name="Path 1917" d="M214.611,241.81a.281.281,0,1,0,.238.278A.281.281,0,0,0,214.611,241.81Z" transform="translate(-191.51 -149.402)" fill="#ffc727"/>
        <path id="Path_1918" data-name="Path 1918" d="M272.455,217a.762.762,0,1,0,.69.758A.762.762,0,0,0,272.455,217Z" transform="translate(-209.521 -141.616)" fill="#ffc727"/>
        <path id="Path_1919" data-name="Path 1919" d="M245.525,106.45a.762.762,0,1,0,.689.758.762.762,0,0,0-.689-.758Z" transform="translate(-201.069 -106.45)" fill="#ffc727"/>
        <path id="Path_1920" data-name="Path 1920" d="M219.575,238.07a.755.755,0,1,0,.755.755.755.755,0,0,0-.755-.755Z" transform="translate(-192.905 -148.228)" fill="#ffc727"/>
      </g>
    </g>
    <g id="freepik--Confetti--inject-139" transform="translate(286.35 141.62)" opacity="0.59">
      <g id="freepik--confetti--inject-139-2" data-name="freepik--confetti--inject-139" transform="translate(0)">
        <path id="Path_2482" data-name="Path 2482" d="M380.61,23.76s-.29,5.23,3.6,8.14l4.07-1.24s-2.72-1.3-4.07-6.9Z" transform="translate(488.418 -21.416)" fill="#455a64"/>
        <path id="Path_2483" data-name="Path 2483" d="M363.2,142.32s-.29,5.23,3.59,8.14l4.08-1.24s-2.72-1.3-4.08-6.9Z" transform="translate(463.916 25.642)" fill="#455a64"/>
        <path id="Path_2484" data-name="Path 2484" d="M275.07,94s-.29,5.24,3.59,8.15l4.08-1.24S280,99.59,278.66,94Z" transform="translate(339.886 6.837)" fill="#455a64"/>
        <path id="Path_2485" data-name="Path 2485" d="M408.92,122.55s-.29,5.23,3.59,8.14l4.08-1.24s-2.72-1.3-4.08-6.9Z" transform="translate(618.711 17.948)" fill="#37474f"/>
        <path id="Path_2486" data-name="Path 2486" d="M480.86,51.48s-2.37,4.67-7.2,5.24l-2.9-3.11s3,.23,7-3.94Z" transform="translate(618.711 -10.491)" fill="#455a64"/>
        <path id="Path_2487" data-name="Path 2487" d="M458,164.05s-2.37,4.67-7.19,5.24l-2.91-3.11s3,.23,7-3.94Z" transform="translate(618.711 42.964)" fill="#455a64"/>
        <path id="Path_2488" data-name="Path 2488" d="M324.48,75.69s-2.37,4.67-7.19,5.25l-2.91-3.12s3,.24,7-3.93Z" transform="translate(397.446 -1.126)" fill="#455a64"/>
        <path id="Path_2489" data-name="Path 2489" d="M396.88,60s-2.37,4.67-7.19,5.24l-2.91-3.11s3.56.55,7.53-3.62Z" transform="translate(559.243 -7.1)" fill="#455a64"/>
        <path id="Path_2490" data-name="Path 2490" d="M402.12,66.85s-.93,5.16-5.39,7.09l-3.67-2.14a13.54,13.54,0,0,0,6.17-5.64Z" transform="translate(618.711 -4.039)" fill="#37474f"/>
        <path id="Path_2491" data-name="Path 2491" d="M122.25,26.83s.29,5.23-3.59,8.14l-4.08-1.24s2.72-1.3,4.08-6.9Z" transform="translate(114.027 -21.416)" fill="#455a64"/>
        <path id="Path_2492" data-name="Path 2492" d="M96.26,119.3s.29,5.24-3.59,8.15l-4.08-1.24s2.72-1.31,4.08-6.91Z" transform="translate(-19.618 16.685)" fill="#455a64"/>
        <path id="Path_2493" data-name="Path 2493" d="M27.94,35.44s2.37,4.68,7.2,5.25L38,37.58s-3,.23-7-3.94Z" transform="translate(-19.618 -21.416)" fill="#455a64"/>
        <path id="Path_2494" data-name="Path 2494" d="M43.78,163.12s2.37,4.67,7.19,5.24l2.91-3.11s-3,.23-7-3.93Z" transform="translate(-19.618 42.964)" fill="#455a64"/>
        <path id="Path_2495" data-name="Path 2495" d="M191.67,64.81s2.37,4.67,7.2,5.24l2.9-3.11s-3,.24-7-3.93Z" transform="translate(223.821 -5.334)" fill="#455a64"/>
        <path id="Path_2496" data-name="Path 2496" d="M296.19,22.5c-4.23-.42-9.93,6.63-5.8,10,2.29,1.89,7.3,1.07,7.24-2.45a.45.45,0,0,0-.37-.39c-3.32-.76-6.61.66-6.05,4.54a7.46,7.46,0,0,0,7,6.12c.2,0,.13-.35,0-.38-2.89-.61-5.62-2.41-6.19-5.5a4,4,0,0,1,.62-3.2,3.15,3.15,0,0,1,1.52-1c.49-.16,2.27-.44,2.66,0,.79.81-1.33,2.18-2,2.39a4.48,4.48,0,0,1-3.83-.36c-1.75-1.22-1.32-3.54-.47-5.18a7,7,0,0,1,5.74-4.1c.24,0,.12-.45-.07-.46Z" transform="translate(360.866 -21.416)" fill="#eceff1"/>
        <path id="Path_2497" data-name="Path 2497" d="M309.24,117.21c1.59-3.58,1.42-7.29,6.05-8.47,2-.53,6.85-1,8.38.81a2.21,2.21,0,0,1-.4,2.79c-1.2,1.07-2.11-.22-2.42-1.36a5.25,5.25,0,0,1,2.31-5.61,9.3,9.3,0,0,1,12.42,2c.17.21.36-.06.28-.24-3.55-8.17-20.6-2.49-15.13,5.35,1.66,2.37,4.58.27,4-2.23-.61-2.79-5.35-2.64-7.44-2.51a8.61,8.61,0,0,0-5.76,2.22c-1.86,1.82-2.1,4.7-2.49,7.14,0,.11.1.27.17.11Z" transform="translate(405.67 11.589)" fill="#eceff1"/>
        <path id="Path_2498" data-name="Path 2498" d="M426.9,22.36c3.33-1,7.89-.7,10.68,1.55,2.14,1.72,3.37,5.47.2,6.76-1.24.51-5.34.51-5.83-1.19-.35-1.18.92-1.88,1.93-2,3-.45,5.77,2.68,5.7,5.49-.1,4.21-5,5.6-8.46,5.64-.23,0-.17.42,0,.44,5.9.57,12.48-4.89,7.24-10.37-1.41-1.47-3.62-2.52-5.65-1.71-1.15.46-2.06,1.5-1.49,2.75.92,2,4.63,2.35,6.42,1.83a3.59,3.59,0,0,0,2.49-4.63c-1.45-5.32-8.9-6.43-13.32-4.83-.13.05-.08.36.07.31Z" transform="translate(618.711 -21.416)" fill="#eceff1"/>
        <path id="Path_2499" data-name="Path 2499" d="M450.88,77.85c-4,1.18-7.64,8.14-4,11.32,3.12,2.7,9.44,2.08,8.4-3.06a.33.33,0,0,0-.22-.25c-4.15-1-5.52,3.85-4.65,7.06,1.35,5,6.37,4.91,10,2.31.12-.09.07-.43-.1-.35-3,1.49-7.12,2.8-8.93-1-1-2-1-5.36.87-6.92a2.61,2.61,0,0,1,1.78-.71c1.38.17,1.15,1.67.37,2.61-1.24,1.52-3.74,1.36-5.41.77-5.7-2-1.78-9.41,1.93-11.49.11-.06.09-.35-.07-.3Z" transform="translate(618.711 2.109)" fill="#eceff1"/>
        <path id="Path_2500" data-name="Path 2500" d="M341.36,150.8c-4,1.18-7.65,8.15-4,11.32,3.13,2.7,9.45,2.09,8.41-3.05a.36.36,0,0,0-.22-.26c-4.16-1-5.53,3.86-4.66,7.06,1.36,5,6.38,4.91,10,2.31.12-.08.06-.43-.1-.34-3,1.48-7.12,2.8-8.93-1-1-2-1-5.37.87-6.93a2.53,2.53,0,0,1,1.78-.7c1.38.16,1.14,1.66.36,2.61-1.24,1.51-3.74,1.35-5.4.76-5.71-2-1.79-9.41,1.93-11.48.11-.07.08-.35-.07-.31Z" transform="translate(432.845 42.964)" fill="#eceff1"/>
        <path id="Path_2501" data-name="Path 2501" d="M475.68,170.57c6.74.54,5.52,13.34.08,15.07a2.66,2.66,0,0,1-2.07-.11,3,3,0,0,1-1.22-2.6c.64-2.2,4.27.58,4.75,1.44a6.3,6.3,0,0,1-.51,7.36c-2.78,3-8.08,3.15-11.55,1.4-.18-.09-.21.25-.09.33,3.73,2.4,10,2,12.76-1.74,2.21-3,.68-11.07-4.15-10.35-4.5.66-1.39,5.78,2,5.11s4.63-5.21,5-8c.42-3.53-.64-8.3-5-8.22-.14,0-.12.31,0,.32Z" transform="translate(618.711 42.964)" fill="#eceff1"/>
        <path id="Path_2502" data-name="Path 2502" d="M366.82,68c-3.53-.45-11.13,2.53-9.15,7.34,1.05,2.58,5.77,4.23,7.32,1.28a.35.35,0,0,0-.18-.44c-7.37-4.17-15.12,7.88-7.3,12.31.24.14.23-.27.09-.38a6.15,6.15,0,0,1-1.53-8.65,8,8,0,0,1,3.28-3c1-.47,3.54-1.14,4.47-.16.43.46.42-.12.2.42-.14.33-.59.51-.9.63a3.65,3.65,0,0,1-2.42-.08,3.39,3.39,0,0,1-2.5-3.89c.87-3.62,5.49-4.94,8.71-5,.23,0,.09-.42-.09-.44Z" transform="translate(456.686 -1.835)" fill="#eceff1"/>
        <path id="Path_2503" data-name="Path 2503" d="M396,115.16s-2.37,4.67-7.19,5.25l-2.91-3.12s3,.24,7-3.93Z" transform="translate(558.62 14.136)" fill="#eceff1"/>
        <path id="Path_2504" data-name="Path 2504" d="M432.35,73.62s-5.2.65-8.37-3l1-4.15s1.49,2.63,7.17,3.59Z" transform="translate(618.711 -3.98)" fill="#eceff1"/>
        <path id="Path_2505" data-name="Path 2505" d="M421.83,188.52s-5.2.65-8.36-3l.95-4.15s1.49,2.62,7.17,3.59Z" transform="translate(618.711 42.964)" fill="#eceff1"/>
        <path id="Path_2506" data-name="Path 2506" d="M353,36.31s-5.2.64-8.37-3l1-4.14s1.49,2.62,7.16,3.59Z" transform="translate(438.49 -21.416)" fill="#eceff1"/>
        <path id="Path_2507" data-name="Path 2507" d="M268,30.4s-5.2.64-8.37-3l.95-4.15s1.49,2.63,7.17,3.6Z" transform="translate(318.682 -21.416)" fill="#eceff1"/>
        <path id="Path_2508" data-name="Path 2508" d="M477.06,134s-5.2.65-8.37-3l1-4.15s1.49,2.62,7.17,3.59Z" transform="translate(618.711 19.388)" fill="#eceff1"/>
        <path id="Path_2509" data-name="Path 2509" d="M214.63,27.85c5.05-.5,11.88,7.94,6.94,12-2.74,2.26-8.73,1.28-8.67-2.93a.56.56,0,0,1,.45-.47c4-.91,7.91.79,7.23,5.43a8.89,8.89,0,0,1-8.35,7.32c-.24,0-.16-.41,0-.45,3.46-.73,6.73-2.88,7.41-6.58a4.76,4.76,0,0,0-.75-3.83,3.8,3.8,0,0,0-1.81-1.21c-.59-.18-2.72-.52-3.19,0-.94,1,1.6,2.6,2.35,2.86a5.39,5.39,0,0,0,4.57-.43c2.1-1.47,1.58-4.24.57-6.2-1.37-2.65-3.78-4.81-6.87-4.91-.28,0-.13-.53.09-.55Z" transform="translate(253.365 -21.416)" fill="#eceff1"/>
        <path id="Path_2510" data-name="Path 2510" d="M132.47,139.91c4.71,1.92,6.81,12.57.55,13.85-3.48.71-8.32-2.94-6.3-6.64a.57.57,0,0,1,.62-.21c3.93,1.05,6.62,4.4,3.86,8.18a8.91,8.91,0,0,1-10.81,2.58c-.22-.1.06-.44.25-.38,3.4,1,7.29.59,9.62-2.37a4.73,4.73,0,0,0,1.12-3.73,3.67,3.67,0,0,0-1-1.92c-.43-.44-2.16-1.73-2.8-1.52-1.29.42.2,3,.75,3.62a5.37,5.37,0,0,0,4.25,1.75c2.53-.31,3.37-3,3.38-5.22,0-3-1.1-6-3.78-7.54-.25-.14.13-.53.33-.45Z" transform="translate(124.937 27.819)" fill="#eceff1"/>
        <path id="Path_2511" data-name="Path 2511" d="M75.73,34.82c-2.85-.83-6.77-.6-9.17,1.33-1.84,1.48-2.89,4.7-.17,5.81,1.07.43,4.59.43,5-1,.3-1-.79-1.61-1.66-1.74-2.56-.4-4.95,2.3-4.9,4.71.09,3.61,4.3,4.81,7.28,4.84.19,0,.14.37,0,.38-5.07.49-10.72-4.2-6.22-8.91,1.2-1.24,3.11-2.19,4.84-1.49,1,.39,1.77,1.28,1.28,2.36-.79,1.72-4,2-5.52,1.57a3.08,3.08,0,0,1-2.13-4c1.24-4.55,7.64-5.5,11.44-4.13C75.91,34.55,75.87,34.86,75.73,34.82Z" transform="translate(-19.618 -21.416)" fill="#eceff1"/>
        <path id="Path_2512" data-name="Path 2512" d="M32.71,68.88c4,1.17,7.65,8.14,4,11.32-3.13,2.7-9.45,2.08-8.41-3.06a.3.3,0,0,1,.22-.25c4.15-1,5.53,3.85,4.66,7.06-1.36,5-6.38,4.91-10,2.3-.12-.08-.06-.42.1-.34,3,1.49,7.12,2.8,8.93-1,1-2,1-5.37-.87-6.93a2.58,2.58,0,0,0-1.78-.7c-1.38.17-1.15,1.66-.37,2.61,1.25,1.51,3.75,1.36,5.41.77,5.71-2,1.79-9.41-1.93-11.49-.11-.06-.08-.35.07-.3Z" transform="translate(-19.618 -1.631)" fill="#eceff1"/>
        <path id="Path_2513" data-name="Path 2513" d="M24.71,162.64c-6.74.54-5.53,13.34-.08,15.07a2.63,2.63,0,0,0,2.06-.11,3,3,0,0,0,1.22-2.6c-.64-2.21-4.27.58-4.75,1.44a6.28,6.28,0,0,0,.52,7.36c2.77,3,8.07,3.15,11.54,1.4.19-.09.22.25.09.33-3.73,2.4-10,2.05-12.75-1.74-2.22-3-.69-11.07,4.14-10.36,4.5.67,1.39,5.79-2,5.11s-4.64-5.2-5-8c-.41-3.53.64-8.3,5-8.22.14,0,.13.31,0,.32Z" transform="translate(-19.618 42.964)" fill="#eceff1"/>
        <path id="Path_2514" data-name="Path 2514" d="M71.68,73.9s5.2.65,8.37-3l-1-4.15s-1.49,2.63-7.17,3.59Z" transform="translate(-19.618 -3.871)" fill="#eceff1"/>
        <path id="Path_2515" data-name="Path 2515" d="M160.28,30.48s5.2.65,8.37-3l-1-4.15s-1.48,2.63-7.16,3.59Z" transform="translate(178.647 -21.416)" fill="#eceff1"/>
        <path id="Path_2516" data-name="Path 2516" d="M161.68,105.63s5.2.65,8.37-3l-1-4.15s-1.49,2.63-7.17,3.6Z" transform="translate(180.62 8.409)" fill="#eceff1"/>
        <path id="Path_2517" data-name="Path 2517" d="M79.12,190.62s5.2.64,8.37-3l-1-4.15S85,186.06,79.36,187Z" transform="translate(-19.618 42.964)" fill="#eceff1"/>
        <path id="Path_2518" data-name="Path 2518" d="M34.58,126.23s5.2.64,8.37-3L42,119s-1.49,2.63-7.17,3.6Z" transform="translate(-19.618 16.368)" fill="#eceff1"/>
        <g id="Group_294" data-name="Group 294" opacity="0.4">
          <path id="Path_2519" data-name="Path 2519" d="M296.19,22.5c-4.23-.42-9.93,6.63-5.8,10,2.29,1.89,7.3,1.07,7.24-2.45a.45.45,0,0,0-.37-.39c-3.32-.76-6.61.66-6.05,4.54a7.46,7.46,0,0,0,7,6.12c.2,0,.13-.35,0-.38-2.89-.61-5.62-2.41-6.19-5.5a4,4,0,0,1,.62-3.2,3.15,3.15,0,0,1,1.52-1c.49-.16,2.27-.44,2.66,0,.79.81-1.33,2.18-2,2.39a4.48,4.48,0,0,1-3.83-.36c-1.75-1.22-1.32-3.54-.47-5.18a7,7,0,0,1,5.74-4.1c.24,0,.12-.45-.07-.46Z" transform="translate(360.947 -21.416)" fill="#fff"/>
          <path id="Path_2520" data-name="Path 2520" d="M309.24,117.21c1.59-3.58,1.42-7.29,6.05-8.47,2-.53,6.85-1,8.38.81a2.21,2.21,0,0,1-.4,2.79c-1.2,1.07-2.11-.22-2.42-1.36a5.25,5.25,0,0,1,2.31-5.61,9.3,9.3,0,0,1,12.42,2c.17.21.36-.06.28-.24-3.55-8.17-20.6-2.49-15.13,5.35,1.66,2.37,4.58.27,4-2.23-.61-2.79-5.35-2.64-7.44-2.51a8.61,8.61,0,0,0-5.76,2.22c-1.86,1.82-2.1,4.7-2.49,7.14,0,.11.1.27.17.11Z" transform="translate(405.763 11.589)" fill="#fff"/>
          <path id="Path_2521" data-name="Path 2521" d="M426.9,22.36c3.33-1,7.89-.7,10.68,1.55,2.14,1.72,3.37,5.47.2,6.76-1.24.51-5.34.51-5.83-1.19-.35-1.18.92-1.88,1.93-2,3-.45,5.77,2.68,5.7,5.49-.1,4.21-5,5.6-8.46,5.64-.23,0-.17.42,0,.44,5.9.57,12.48-4.89,7.24-10.37-1.41-1.47-3.62-2.52-5.65-1.71-1.15.46-2.06,1.5-1.49,2.75.92,2,4.63,2.35,6.42,1.83a3.59,3.59,0,0,0,2.49-4.63c-1.45-5.32-8.9-6.43-13.32-4.83-.13.05-.08.36.07.31Z" transform="translate(618.711 -21.416)" fill="#fff"/>
          <path id="Path_2522" data-name="Path 2522" d="M450.88,77.85c-4,1.18-7.64,8.14-4,11.32,3.12,2.7,9.44,2.08,8.4-3.06a.33.33,0,0,0-.22-.25c-4.15-1-5.52,3.85-4.65,7.06,1.35,5,6.37,4.91,10,2.31.12-.09.07-.43-.1-.35-3,1.49-7.12,2.8-8.93-1-1-2-1-5.36.87-6.92a2.61,2.61,0,0,1,1.78-.71c1.38.17,1.15,1.67.37,2.61-1.24,1.52-3.74,1.36-5.41.77-5.7-2-1.78-9.41,1.93-11.49.11-.06.09-.35-.07-.3Z" transform="translate(618.711 2.109)" fill="#fff"/>
          <path id="Path_2523" data-name="Path 2523" d="M341.36,150.8c-4,1.18-7.65,8.15-4,11.32,3.13,2.7,9.45,2.09,8.41-3.05a.36.36,0,0,0-.22-.26c-4.16-1-5.53,3.86-4.66,7.06,1.36,5,6.38,4.91,10,2.31.12-.08.06-.43-.1-.34-3,1.48-7.12,2.8-8.93-1-1-2-1-5.37.87-6.93a2.53,2.53,0,0,1,1.78-.7c1.38.16,1.14,1.66.36,2.61-1.24,1.51-3.74,1.35-5.4.76-5.71-2-1.79-9.41,1.93-11.48.11-.07.08-.35-.07-.31Z" transform="translate(432.942 42.964)" fill="#fff"/>
          <path id="Path_2524" data-name="Path 2524" d="M475.68,170.57c6.74.54,5.52,13.34.08,15.07a2.66,2.66,0,0,1-2.07-.11,3,3,0,0,1-1.22-2.6c.64-2.2,4.27.58,4.75,1.44a6.3,6.3,0,0,1-.51,7.36c-2.78,3-8.08,3.15-11.55,1.4-.18-.09-.21.25-.09.33,3.73,2.4,10,2,12.76-1.74,2.21-3,.68-11.07-4.15-10.35-4.5.66-1.39,5.78,2,5.11s4.63-5.21,5-8c.42-3.53-.64-8.3-5-8.22-.14,0-.12.31,0,.32Z" transform="translate(618.711 42.964)" fill="#fff"/>
          <path id="Path_2525" data-name="Path 2525" d="M366.82,68c-3.53-.45-11.13,2.53-9.15,7.34,1.05,2.58,5.77,4.23,7.32,1.28a.35.35,0,0,0-.18-.44c-7.37-4.17-15.12,7.88-7.3,12.31.24.14.23-.27.09-.38a6.15,6.15,0,0,1-1.53-8.65,8,8,0,0,1,3.28-3c1-.47,3.54-1.14,4.47-.16.43.46.42-.12.2.42-.14.33-.59.51-.9.63a3.65,3.65,0,0,1-2.42-.08,3.39,3.39,0,0,1-2.5-3.89c.87-3.62,5.49-4.94,8.71-5,.23,0,.09-.42-.09-.44Z" transform="translate(456.788 -1.835)" fill="#fff"/>
          <path id="Path_2526" data-name="Path 2526" d="M214.63,27.85c5.05-.5,11.88,7.94,6.94,12-2.74,2.26-8.73,1.28-8.67-2.93a.56.56,0,0,1,.45-.47c4-.91,7.91.79,7.23,5.43a8.89,8.89,0,0,1-8.35,7.32c-.24,0-.16-.41,0-.45,3.46-.73,6.73-2.88,7.41-6.58a4.76,4.76,0,0,0-.75-3.83,3.8,3.8,0,0,0-1.81-1.21c-.59-.18-2.72-.52-3.19,0-.94,1,1.6,2.6,2.35,2.86a5.39,5.39,0,0,0,4.57-.43c2.1-1.47,1.58-4.24.57-6.2-1.37-2.65-3.78-4.81-6.87-4.91-.28,0-.13-.53.09-.55Z" transform="translate(253.422 -21.416)" fill="#fff"/>
          <path id="Path_2527" data-name="Path 2527" d="M132.47,139.91c4.71,1.92,6.81,12.57.55,13.85-3.48.71-8.32-2.94-6.3-6.64a.57.57,0,0,1,.62-.21c3.93,1.05,6.62,4.4,3.86,8.18a8.91,8.91,0,0,1-10.81,2.58c-.22-.1.06-.44.25-.38,3.4,1,7.29.59,9.62-2.37a4.73,4.73,0,0,0,1.12-3.73,3.67,3.67,0,0,0-1-1.92c-.43-.44-2.16-1.73-2.8-1.52-1.29.42.2,3,.75,3.62a5.37,5.37,0,0,0,4.25,1.75c2.53-.31,3.37-3,3.38-5.22,0-3-1.1-6-3.78-7.54-.25-.14.13-.53.33-.45Z" transform="translate(124.968 27.819)" fill="#fff"/>
          <path id="Path_2528" data-name="Path 2528" d="M75.73,34.82c-2.85-.83-6.77-.6-9.17,1.33-1.84,1.48-2.89,4.7-.17,5.81,1.07.43,4.59.43,5-1,.3-1-.79-1.61-1.66-1.74-2.56-.4-4.95,2.3-4.9,4.71.09,3.61,4.3,4.81,7.28,4.84.19,0,.14.37,0,.38-5.07.49-10.72-4.2-6.22-8.91,1.2-1.24,3.11-2.19,4.84-1.49,1,.39,1.77,1.28,1.28,2.36-.79,1.72-4,2-5.52,1.57a3.08,3.08,0,0,1-2.13-4c1.24-4.55,7.64-5.5,11.44-4.13C75.91,34.55,75.87,34.86,75.73,34.82Z" transform="translate(-19.618 -21.416)" fill="#fff"/>
          <path id="Path_2529" data-name="Path 2529" d="M32.71,68.88c4,1.17,7.65,8.14,4,11.32-3.13,2.7-9.45,2.08-8.41-3.06a.3.3,0,0,1,.22-.25c4.15-1,5.53,3.85,4.66,7.06-1.36,5-6.38,4.91-10,2.3-.12-.08-.06-.42.1-.34,3,1.49,7.12,2.8,8.93-1,1-2,1-5.37-.87-6.93a2.58,2.58,0,0,0-1.78-.7c-1.38.17-1.15,1.66-.37,2.61,1.25,1.51,3.75,1.36,5.41.77,5.71-2,1.79-9.41-1.93-11.49-.11-.06-.08-.35.07-.3Z" transform="translate(-19.618 -1.631)" fill="#fff"/>
          <path id="Path_2530" data-name="Path 2530" d="M24.71,162.64c-6.74.54-5.53,13.34-.08,15.07a2.63,2.63,0,0,0,2.06-.11,3,3,0,0,0,1.22-2.6c-.64-2.21-4.27.58-4.75,1.44a6.28,6.28,0,0,0,.52,7.36c2.77,3,8.07,3.15,11.54,1.4.19-.09.22.25.09.33-3.73,2.4-10,2.05-12.75-1.74-2.22-3-.69-11.07,4.14-10.36,4.5.67,1.39,5.79-2,5.11s-4.64-5.2-5-8c-.41-3.53.64-8.3,5-8.22.14,0,.13.31,0,.32Z" transform="translate(-19.618 42.964)" fill="#fff"/>
        </g>
        <path id="Path_2531" data-name="Path 2531" d="M116.07,71.72s2.37,4.67,7.19,5.24l2.91-3.11s-3.56.55-7.53-3.62Z" transform="translate(116.853 -2.577)" fill="#455a64"/>
        <path id="Path_2532" data-name="Path 2532" d="M110.83,78.62s.93,5.15,5.38,7.09l3.68-2.15a13.48,13.48,0,0,1-6.17-5.63Z" transform="translate(109.142 0.533)" fill="#37474f"/>
        <path id="Path_2533" data-name="Path 2533" d="M273.91,53.66s-2.37,4.67-7.19,5.24l-2.91-3.11s3.56.55,7.54-3.62Z" transform="translate(325.893 -9.547)" fill="#455a64"/>
        <path id="Path_2534" data-name="Path 2534" d="M254.4,48.85S253.47,54,249,56l-3.68-2.15a13.48,13.48,0,0,0,6.17-5.63Z" transform="translate(299.011 -21.416)" fill="#37474f"/>
      </g>
    </g>
    <g id="freepik--background-complete--inject-76" transform="translate(279 137)">
      <g id="Group_297" data-name="Group 297" transform="translate(393.327 19.788)">
        <path id="Path_2535" data-name="Path 2535" d="M463.144,202.12a6.575,6.575,0,0,1-.762-.762,10.172,10.172,0,0,1-1.676-2.583,11.709,11.709,0,0,1-1.067-4.746,11.13,11.13,0,0,1,1.8-6.118,45.833,45.833,0,0,1,5.043-5.965,23.618,23.618,0,0,0,2.628-3.405,10.8,10.8,0,0,0,1.592-4.2,8.746,8.746,0,0,0-.716-4.624,19.808,19.808,0,0,0-2.628-4.228c-1.036-1.356-2.179-2.689-3.223-4.137a19.983,19.983,0,0,1-2.583-4.769,12.007,12.007,0,0,1-.709-5.394,9.227,9.227,0,0,1,2.118-4.876,6.857,6.857,0,0,1,4.457-2.453,3.939,3.939,0,0,1,2.484.5,2.644,2.644,0,0,1,1.249,2.156,2.339,2.339,0,0,1-1.341,2.011,3.047,3.047,0,0,1-2.346.229,7.313,7.313,0,0,1-3.474-2.674,15.481,15.481,0,0,1-2.994-7.2,23.616,23.616,0,0,1-.061-6.453,45.633,45.633,0,0,1,.869-4.792c.3-1.3.571-2.286.762-2.971l.221-.762a.914.914,0,0,1,.084-.259,1.191,1.191,0,0,1-.046.267c-.038.2-.1.457-.175.762-.16.716-.381,1.714-.67,2.994a46.034,46.034,0,0,0-.762,4.777,23.186,23.186,0,0,0,.114,6.377,15.313,15.313,0,0,0,2.971,7.032,7,7,0,0,0,3.3,2.529,2.712,2.712,0,0,0,2.065-.206,1.935,1.935,0,0,0,1.128-1.668,2.285,2.285,0,0,0-1.074-1.813,3.466,3.466,0,0,0-2.225-.434,6.438,6.438,0,0,0-4.175,2.286,8.868,8.868,0,0,0-2.011,4.624,11.627,11.627,0,0,0,.693,5.2,19.475,19.475,0,0,0,2.529,4.67c1.029,1.425,2.164,2.75,3.207,4.122a20.8,20.8,0,0,1,2.674,4.327,9.1,9.1,0,0,1,.724,4.83,11.108,11.108,0,0,1-1.661,4.35,23.619,23.619,0,0,1-2.682,3.451,42.841,42.841,0,0,0-5.051,5.889,10.833,10.833,0,0,0-1.828,6,11.713,11.713,0,0,0,.974,4.676,10.665,10.665,0,0,0,1.593,2.592C462.885,201.846,463.16,202.1,463.144,202.12Z" transform="translate(-444.07 -79.928)" fill="#e0e0e0"/>
        <path id="Path_2536" data-name="Path 2536" d="M464.006,53.664c-11.062-1.524-19.2,4.312-22.855,13.142S439.307,86,443.909,94.355c2.56,4.655,6.392,9.142,11.588,10.193,4.259.876,8.738-.762,12.121-3.466s5.8-6.453,7.847-10.277c3.664-6.818,5.851-14.521,5.005-22.215-.762-6.735-7.618-13.919-16.486-14.925" transform="translate(-439.202 -53.423)" fill="#f5f5f5"/>
        <path id="Path_2537" data-name="Path 2537" d="M462.354,119.58c-.411.571-1.3,2.567-1.615,3.192a1.1,1.1,0,0,0-.145.952.762.762,0,0,0,.975.312,2.24,2.24,0,0,0,.876-.686,1.059,1.059,0,1,0,2.065-.465,1.882,1.882,0,0,0,.83.716.655.655,0,0,0,.868-.449.975.975,0,0,0-.289-.632l-2.179-2.743" transform="translate(-444.285 -73.05)" fill="#f5f5f5"/>
      </g>
      <path id="Path_2544" data-name="Path 2544" d="M64.54,78.217S79.321,104.6,82.718,103.281C87.1,101.588,94.125,73,94.125,73S67.183,77.846,64.54,78.217Z" transform="translate(9.574 14.253)" fill="#f5f5f5"/>
      <path id="Path_2545" data-name="Path 2545" d="M92.59,73.6s17.076,24.9,20.346,23.325c4.208-2.075,8.66-31.22,8.66-31.22S95.2,73,92.59,73.6Z" transform="translate(14.042 13.716)" fill="#ebebeb"/>
      <path id="Path_2546" data-name="Path 2546" d="M120,66.347s19.256,23.29,22.363,21.412c4.011-2.458,5.8-31.869,5.8-31.869S122.539,65.5,120,66.347Z" transform="translate(18.408 13.041)" fill="#f5f5f5"/>
      <path id="Path_2547" data-name="Path 2547" d="M145.44,57.2s20.589,22.154,23.58,20.067c3.86-2.678,3.942-32.159,3.942-32.159S147.932,56.2,145.44,57.2Z" transform="translate(22.461 12.331)" fill="#ebebeb"/>
      <path id="Path_2548" data-name="Path 2548" d="M170.46,45.984s22.757,19.905,25.5,17.529c3.571-3.072.591-32.4.591-32.4S172.825,44.743,170.46,45.984Z" transform="translate(26.446 11.42)" fill="#f5f5f5"/>
      <path id="Path_2549" data-name="Path 2549" d="M194.25,32.56s24.206,18.12,26.78,15.535c3.316-3.327-1.866-32.344-1.866-32.344S196.511,31.111,194.25,32.56Z" transform="translate(27.038 10.435)" fill="#ebebeb"/>
      <path id="Path_2550" data-name="Path 2550" d="M36.49,80.481s12.66,27.464,16.149,26.409C57.149,105.545,66.4,77.56,66.4,77.56S39.168,80.308,36.49,80.481Z" transform="translate(5.106 12.842)" fill="#ebebeb"/>
      <path id="Path_2551" data-name="Path 2551" d="M273.591,0l-.568.51q-.591.487-1.7,1.461L268.56,4.289,266.786,5.8l-2.052,1.658L259.9,11.373l-5.866,4.51c-1.043.812-2.156,1.623-3.292,2.458l-3.547,2.585c-.614.441-1.159.893-1.855,1.333L243.4,23.6l-4.023,2.782a385.511,385.511,0,0,1-40.343,23.939c-7.883,3.988-16.23,7.964-25.1,11.767s-18.155,7.315-27.823,10.6l-7.222,2.388-7.176,2.191-1.785.533-1.785.5-3.547.985-3.478.974-3.478.893c-2.319.568-4.637,1.159-6.956,1.7l-6.828,1.553c-2.319.5-4.51.916-6.736,1.368l-3.327.707-3.281.568c-8.695,1.611-17.03,2.655-24.832,3.571S50.612,92,43.889,92.257L39,92.465c-1.577.07-3.13,0-4.637.093-3,0-5.8.1-8.5,0s-5.124,0-7.4-.116l-6.214-.267c-.927,0-1.809-.07-2.643-.128L7.29,91.886l-3.64-.255-2.226-.174-.754-.07h.754l2.237.2,3.629.232,2.319.151c.823,0,1.7.07,2.643.116l6.2.232c2.319.07,4.742,0,7.4.1s5.483,0,8.5-.07c1.507,0,3.049,0,4.637-.1l4.881-.209c6.678-.278,13.912-.881,21.783-1.681s16.126-1.971,24.8-3.594l3.35-.556,3.3-.672c2.214-.452,4.463-.869,6.712-1.368l6.84-1.542c2.319-.522,4.637-1.159,6.956-1.716l3.478-.893,3.478-.974,3.478-.985,1.785-.5,1.774-.545,7.176-2.179,7.211-2.388c9.645-3.281,18.931-6.851,27.823-10.584s17.2-7.756,25.087-11.744a389.68,389.68,0,0,0,40.355-23.858l4.023-2.782c.661-.441,1.3-.893,1.936-1.333l1.855-1.333,3.547-2.574c1.159-.835,2.261-1.635,3.316-2.446l5.878-4.486,4.846-3.9L266.728,5.8,268.5,4.3l2.782-2.319L273,.487Z" transform="translate(-0.6 10.267)" fill="#455a64"/>
      <path id="Path_2552" data-name="Path 2552" d="M28.271,93.274H23.124c-1.646,0-3.2,0-4.637-.081l-7.246-.383a11.034,11.034,0,0,1-1.669-.081l-8.185-.591-.777-.07.081-1.159h.777l8.185.533,1.646.07,7.188.267c1.449,0,2.979,0,4.579.07h12.9c.985,0,1.982,0,2.991-.081l4.892-.209c6.04-.255,12.949-.788,21.737-1.681,7.35-.893,15.917-1.959,24.739-3.605l6.585-1.24,2.319-.464c1.449-.29,2.9-.58,4.347-.9l6.84-1.542c1.472-.336,2.956-.707,4.44-1.09l2.481-.626,6.956-1.855,7.2-1.971,7.164-2.191,7.2-2.319c9.274-3.142,18.549-6.7,27.742-10.573,8.185-3.478,16.613-7.454,25.052-11.732a388.579,388.579,0,0,0,40.3-23.928l8.869-6.2,2.945-2.179c.974-.719,1.924-1.4,2.829-2.1l5.878-4.5,8.672-7.025,4.5-3.768.6-.487L274,.461l-.591.51-8.289,7.014L260.281,11.9l-5.878,4.51c-.9.719-1.866,1.414-2.863,2.145L246.9,21.943l-1.217.869-5.959,4.127A390.481,390.481,0,0,1,199.3,50.948c-8.474,4.3-16.926,8.266-25.134,11.79-9.2,3.884-18.549,7.454-27.823,10.619l-7.222,2.388-17.842,5.182-3.478.893-2.492.626c-1.484.383-2.968.765-4.463,1.09l-6.828,1.542c-1.484.336-2.945.626-4.405.9l-2.319.475-6.608,1.229C81.7,89.333,73.1,90.4,65.751,91.257,56.929,92.15,50,92.671,43.91,92.9l-4.881.209c-1.043,0-2.064,0-3.072.07H32.444C31.007,93.251,29.616,93.274,28.271,93.274Z" transform="translate(-0.61 10.2)" fill="#e0e0e0"/>
      <g id="Group_296" data-name="Group 296" transform="translate(812.123)">
        <path id="Path_2553" data-name="Path 2553" d="M318.244,37.92s-5.043,29.817-1.577,30.918c4.486,1.426,27.916-16.45,27.916-16.45S320.539,39.288,318.244,37.92Z" transform="translate(-249.314 6.266)" fill="#f5f5f5"/>
        <path id="Path_2554" data-name="Path 2554" d="M341.834,52.74s-2.319,30.142,1.159,30.942C347.631,84.7,369.321,64.8,369.321,64.8S344.245,53.9,341.834,52.74Z" transform="translate(-240.599 8.715)" fill="#ebebeb"/>
        <path id="Path_2555" data-name="Path 2555" d="M369,62.92s.359,30.234,3.976,30.7c4.637.6,24.519-21.169,24.519-21.169S371.446,63.847,369,62.92Z" transform="translate(-231.047 10.396)" fill="#f5f5f5"/>
        <path id="Path_2556" data-name="Path 2556" d="M393.53,72.69s2.133,30.142,5.8,30.42c4.7.325,23.255-22.571,23.255-22.571S396.092,73.478,393.53,72.69Z" transform="translate(-222.615 12.066)" fill="#ebebeb"/>
        <path id="Path_2557" data-name="Path 2557" d="M420.28,79.36s5.24,29.771,8.88,29.655c4.707-.151,20.8-24.855,20.8-24.855S422.912,79.87,420.28,79.36Z" transform="translate(-213.393 13.129)" fill="#f5f5f5"/>
        <path id="Path_2558" data-name="Path 2558" d="M447.4,83.62s7.477,29.3,11.106,28.9c4.637-.51,18.85-26.351,18.85-26.351S450.066,83.945,447.4,83.62Z" transform="translate(-199.343 13.807)" fill="#ebebeb"/>
        <path id="Path_2559" data-name="Path 2559" d="M293.971,23.43s-7.373,29.319-4,30.7c4.359,1.774,29.156-14.2,29.156-14.2S296.162,24.972,293.971,23.43Z" transform="translate(-262.519 3.872)" fill="#ebebeb"/>
        <path id="Path_2560" data-name="Path 2560" d="M574.047,100.568h-.873l-2.539.07-4.152.1-2.645.07H553.723l-8.436-.175c-1.508,0-3.081-.093-4.694-.163l-5-.21-2.645-.116-2.645-.175-5.567-.361a492.233,492.233,0,0,1-52.972-6.71c-9.851-1.841-20.139-4.019-30.7-6.617s-21.4-5.662-32.3-9.18l-8.119-2.679L392.7,71.608l-1.97-.7-1.944-.746-3.835-1.433-3.835-1.456-3.755-1.526c-2.473-1.025-4.972-1.98-7.379-3.029l-7.18-3.11c-2.367-1.025-4.668-2.12-6.955-3.169l-3.412-1.573-3.332-1.619c-8.86-4.217-17.018-8.667-24.6-12.814S310.1,31.977,303.975,27.97l-4.483-2.924c-1.468-.944-2.83-1.934-4.192-2.854-2.645-1.864-5.289-3.6-7.577-5.324s-4.522-3.262-6.479-4.765L275.955,7.98c-.793-.617-1.56-1.165-2.261-1.759l-1.931-1.584-3.041-2.493L266.8.536,266.17,0s.225.163.648.513l1.891,1.514,3.055,2.47,1.944,1.573c.7.571,1.468,1.165,2.274,1.759l5.289,4.1c1.97,1.479,4.165,3.029,6.493,4.741s4.893,3.495,7.6,5.3c1.322.92,2.724,1.91,4.192,2.842l4.483,2.912c6.122,4,13.038,8.154,20.536,12.418s15.749,8.62,24.608,12.814l3.332,1.619,3.412,1.561c2.288,1.048,4.575,2.132,6.942,3.169l7.18,3.1c2.407,1.048,4.893,2,7.379,3.029l3.755,1.514,3.822,1.456,3.914,1.491,1.944.746,1.97.687,7.934,2.819,8.119,2.679c10.909,3.495,21.713,6.582,32.251,9.238s20.84,4.788,30.678,6.628a498.954,498.954,0,0,0,52.893,6.78l5.554.373,2.645.175,2.645.116,5,.233c1.613.07,3.174.151,4.694.163l8.423.2h12.747l4.139-.07h2.552A5.032,5.032,0,0,1,574.047,100.568Z" transform="translate(-266.17 0)" fill="#e0e0e0"/>
      </g>
    </g>
  </g>
</svg>
