<svg id="undraw_Gifts_re_97j6" xmlns="http://www.w3.org/2000/svg" width="99.035" height="71.256" viewBox="0 0 99.035 71.256">
  <path id="Path_1921" data-name="Path 1921" d="M305.921,339.392c.21.13.415.263.621.4a52.56,52.56,0,0,1,3.667,17.119q.047,1.018.048,2.034a51.032,51.032,0,0,1-2.192,14.984q-.117.384-.238.764c-.058.182-.117.366-.181.546l-.2.274s-.009.011-.014.015c-.027.037-.054.073-.078.109-.116.156-.234.311-.35.466l.1.007.245.016v0c-.082,0-.166,0-.249-.009-.03,0-.063,0-.094,0l-.084,0c-3.534-.1-7.15-.272-10.365-1.717-3.366-1.514-6.221-4.787-6.075-8.473a6.616,6.616,0,0,1,.218-1.429c.052-.195.114-.387.18-.578a6.966,6.966,0,0,1,11.951-2.187c-.965-3.791-5.105-5.725-8.835-6.9s-7.931-2.4-9.838-5.82a7.527,7.527,0,0,1-.4-6.16c.021-.061.043-.124.067-.186a10.165,10.165,0,0,1,4.9-5.565c4.265-2.112,9.448-1.367,13.818.518A25.206,25.206,0,0,1,305.921,339.392Z" transform="translate(-283.284 -318.047)" fill="#f2f2f2"/>
  <path id="Path_1922" data-name="Path 1922" d="M333.675,515.243a15.684,15.684,0,0,1,9.025,3.932,16.049,16.049,0,0,1,4.564,7.16c.049.158.095.315.137.473.085-.161.167-.326.248-.489.052-.1.106-.211.156-.316-.058.182-.117.366-.181.546l-.2.274s-.009.011-.014.015c-.027.037-.054.073-.078.109-.116.156-.234.311-.35.466l.1.007.245.016v0c-.082,0-.166,0-.249-.009-.03,0-.063,0-.094,0-.01-.048-.023-.1-.036-.142a15.155,15.155,0,0,0-16.27-11.479c.052-.195.114-.387.18-.578A16.208,16.208,0,0,1,333.675,515.243Z" transform="translate(-323.263 -469.356)" fill="#fff"/>
  <path id="Path_1923" data-name="Path 1923" d="M307.378,386.491a17.257,17.257,0,0,1,3.534,3.559,14.314,14.314,0,0,1,1.35,2.293c.179.373.342.758.489,1.146q.047,1.018.048,2.034a14.771,14.771,0,0,0-.455-1.512c-.093-.272-.2-.539-.306-.8a16.162,16.162,0,0,0-6.083-7.056,37.448,37.448,0,0,0-9.2-4.379,42.476,42.476,0,0,0-10.174-2.03.3.3,0,0,1-.28-.315.262.262,0,0,1,.067-.186.218.218,0,0,1,.187-.059c.427.032.853.066,1.279.111a42.976,42.976,0,0,1,10.377,2.4A34.58,34.58,0,0,1,307.378,386.491Z" transform="translate(-285.828 -354.625)" fill="#fff"/>
  <ellipse id="Ellipse_50" data-name="Ellipse 50" cx="1.185" cy="1.185" rx="1.185" ry="1.185" transform="translate(2.802 13.167)" fill="#f2f2f2"/>
  <rect id="Rectangle_72" data-name="Rectangle 72" width="53.783" height="45.81" transform="translate(22.99 25.29)" fill="#fff"/>
  <path id="Path_1924" data-name="Path 1924" d="M483.427,429h-54.1V382.878h54.1Zm-53.783-.313h53.471v-45.5H429.644Z" transform="translate(-406.497 -357.744)" fill="#3f3d56"/>
  <rect id="Rectangle_73" data-name="Rectangle 73" width="13.446" height="36.898" transform="translate(43.159 34.202)" fill="#6c63ff"/>
  <rect id="Rectangle_74" data-name="Rectangle 74" width="13.446" height="36.898" transform="translate(43.159 34.202)" fill="#ff9b15"/>
  <path id="Path_1925" data-name="Path 1925" d="M148.046,183.255v7.432l53.627,3.434-.158-9.171Z" transform="translate(-124.899 -154.604)" opacity="0.2"/>
  <rect id="Rectangle_75" data-name="Rectangle 75" width="60.037" height="13.133" transform="translate(19.863 21.069)" fill="#fff"/>
  <path id="Path_1926" data-name="Path 1926" d="M469.681,369.324h-60.35V355.878h60.35Zm-60.037-.313h59.725v-12.82H409.644Z" transform="translate(-389.624 -334.966)" fill="#3f3d56"/>
  <rect id="Rectangle_76" data-name="Rectangle 76" width="13.446" height="14.228" transform="translate(43.159 19.818)" fill="#ff9b15"/>
  <path id="Path_1927" data-name="Path 1927" d="M517.172,240.776c3.549,5.261.205,13.723.205,13.723s-9.1-.068-12.648-5.33-.205-13.723-.205-13.723S513.623,235.514,517.172,240.776Z" transform="translate(-468.73 -233.363)" fill="#ff9b15"/>
  <path id="Path_1928" data-name="Path 1928" d="M594.73,240.776c-3.549,5.261-.205,13.723-.205,13.723s9.1-.068,12.648-5.33.205-13.723.205-13.723S598.279,235.514,594.73,240.776Z" transform="translate(-544.659 -233.363)" fill="#ff9b15"/>
  <ellipse id="Ellipse_51" data-name="Ellipse 51" cx="1.407" cy="1.407" rx="1.407" ry="1.407" transform="translate(39.094 8.561)" opacity="0.42"/>
  <ellipse id="Ellipse_52" data-name="Ellipse 52" cx="1.407" cy="1.407" rx="1.407" ry="1.407" transform="translate(47.537 22.788)" opacity="0.42"/>
  <ellipse id="Ellipse_53" data-name="Ellipse 53" cx="1.407" cy="1.407" rx="1.407" ry="1.407" transform="translate(47.537 53.589)" opacity="0.42"/>
  <ellipse id="Ellipse_54" data-name="Ellipse 54" cx="0.938" cy="0.938" rx="0.938" ry="0.938" transform="translate(43.315 14.189)" opacity="0.42"/>
  <ellipse id="Ellipse_55" data-name="Ellipse 55" cx="0.938" cy="0.938" rx="0.938" ry="0.938" transform="translate(57.387 6.216)" opacity="0.42"/>
  <ellipse id="Ellipse_56" data-name="Ellipse 56" cx="0.938" cy="0.938" rx="0.938" ry="0.938" transform="translate(51.289 28.261)" opacity="0.42"/>
  <ellipse id="Ellipse_57" data-name="Ellipse 57" cx="0.938" cy="0.938" rx="0.938" ry="0.938" transform="translate(45.661 40.456)" opacity="0.42"/>
  <ellipse id="Ellipse_58" data-name="Ellipse 58" cx="0.938" cy="0.938" rx="0.938" ry="0.938" transform="translate(50.507 44.677)" opacity="0.42"/>
  <ellipse id="Ellipse_59" data-name="Ellipse 59" cx="0.938" cy="0.938" rx="0.938" ry="0.938" transform="translate(49.413 62.344)" fill="#3f3d56"/>
  <rect id="Rectangle_77" data-name="Rectangle 77" width="28.617" height="24.375" transform="translate(68.671 46.798)" fill="#fff"/>
  <path id="Path_1929" data-name="Path 1929" d="M750.757,545.454H721.973V520.913h28.784Zm-28.617-.166H750.59V521.079H722.139Z" transform="translate(-653.385 -474.198)" fill="#3f3d56"/>
  <rect id="Rectangle_78" data-name="Rectangle 78" width="7.154" height="19.633" transform="translate(79.402 51.54)" fill="#6c63ff"/>
  <rect id="Rectangle_79" data-name="Rectangle 79" width="7.154" height="19.633" transform="translate(79.402 51.54)" fill="#ffc727"/>
  <path id="Path_1930" data-name="Path 1930" d="M439.752,310.763v3.955l28.534,1.827-.084-4.88Z" transform="translate(-370.998 -262.176)" opacity="0.2"/>
  <rect id="Rectangle_80" data-name="Rectangle 80" width="31.945" height="6.988" transform="translate(67.007 44.552)" fill="#fff"/>
  <path id="Path_1931" data-name="Path 1931" d="M743.442,513.7H711.331v-7.154h32.111Zm-31.945-.166h31.778v-6.822H711.5Z" transform="translate(-644.407 -462.078)" fill="#3f3d56"/>
  <rect id="Rectangle_81" data-name="Rectangle 81" width="7.154" height="7.57" transform="translate(79.402 43.887)" fill="#ffc727"/>
  <path id="Path_1932" data-name="Path 1932" d="M768.712,445.3c1.888,2.8.109,7.3.109,7.3s-4.841-.036-6.73-2.836-.109-7.3-.109-7.3S766.824,442.5,768.712,445.3Z" transform="translate(-686.499 -408.017)" fill="#ffc727"/>
  <path id="Path_1933" data-name="Path 1933" d="M809.979,445.3c-1.888,2.8-.109,7.3-.109,7.3s4.841-.036,6.73-2.836.109-7.3.109-7.3S811.867,442.5,809.979,445.3Z" transform="translate(-726.899 -408.017)" fill="#ffc727"/>
  <circle id="Ellipse_60" data-name="Ellipse 60" cx="0.749" cy="0.749" r="0.749" transform="translate(77.239 37.897)" opacity="0.47"/>
  <circle id="Ellipse_61" data-name="Ellipse 61" cx="0.749" cy="0.749" r="0.749" transform="translate(81.732 45.467)" opacity="0.47"/>
  <circle id="Ellipse_62" data-name="Ellipse 62" cx="0.749" cy="0.749" r="0.749" transform="translate(81.732 61.856)" opacity="0.47"/>
  <ellipse id="Ellipse_63" data-name="Ellipse 63" cx="0.499" cy="0.499" rx="0.499" ry="0.499" transform="translate(79.486 40.892)" opacity="0.47"/>
  <ellipse id="Ellipse_64" data-name="Ellipse 64" cx="0.499" cy="0.499" rx="0.499" ry="0.499" transform="translate(86.973 36.649)" opacity="0.47"/>
  <ellipse id="Ellipse_65" data-name="Ellipse 65" cx="0.499" cy="0.499" rx="0.499" ry="0.499" transform="translate(83.728 48.379)" opacity="0.47"/>
  <ellipse id="Ellipse_66" data-name="Ellipse 66" cx="0.499" cy="0.499" rx="0.499" ry="0.499" transform="translate(80.734 54.868)" opacity="0.47"/>
  <ellipse id="Ellipse_67" data-name="Ellipse 67" cx="0.499" cy="0.499" rx="0.499" ry="0.499" transform="translate(83.312 57.114)" opacity="0.47"/>
  <ellipse id="Ellipse_68" data-name="Ellipse 68" cx="0.499" cy="0.499" rx="0.499" ry="0.499" transform="translate(82.73 66.514)" opacity="0.47"/>
  <ellipse id="Ellipse_69" data-name="Ellipse 69" cx="1.057" cy="3.367" rx="1.057" ry="3.367" transform="translate(41.511 58.012) rotate(-64.626)" fill="#2f2e41"/>
  <ellipse id="Ellipse_70" data-name="Ellipse 70" cx="1.057" cy="3.367" rx="1.057" ry="3.367" transform="translate(56.78 60.892) rotate(-39.938)" fill="#2f2e41"/>
  <ellipse id="Ellipse_71" data-name="Ellipse 71" cx="6.733" cy="6.733" rx="6.733" ry="6.733" transform="translate(45.856 54.891)" fill="#2f2e41"/>
  <rect id="Rectangle_82" data-name="Rectangle 82" width="2.046" height="3.665" transform="translate(53.394 66.909)" fill="#2f2e41"/>
  <rect id="Rectangle_83" data-name="Rectangle 83" width="2.046" height="3.665" transform="translate(49.303 66.909)" fill="#2f2e41"/>
  <ellipse id="Ellipse_72" data-name="Ellipse 72" cx="1.705" cy="0.639" rx="1.705" ry="0.639" transform="translate(52.03 69.978)" fill="#2f2e41"/>
  <ellipse id="Ellipse_73" data-name="Ellipse 73" cx="1.705" cy="0.639" rx="1.705" ry="0.639" transform="translate(47.939 69.892)" fill="#2f2e41"/>
  <path id="Path_1934" data-name="Path 1934" d="M605.611,544.086a5.011,5.011,0,0,1,9.678,2.4c-.6,2.421-2.6,2.429-5.269,1.766S605.01,546.507,605.611,544.086Z" transform="translate(-555.136 -490.925)" fill="#e6e6e6"/>
  <ellipse id="Ellipse_74" data-name="Ellipse 74" cx="2.245" cy="2.245" rx="2.245" ry="2.245" transform="translate(49.338 57.959)" fill="#fff"/>
  <ellipse id="Ellipse_75" data-name="Ellipse 75" cx="0.748" cy="0.748" rx="0.748" ry="0.748" transform="translate(49.912 58.651)" fill="#3f3d56"/>
  <path id="Path_1935" data-name="Path 1935" d="M606.207,632.892a1.5,1.5,0,0,1-2.945.536h0v0c-.147-.813.482-1.1,1.295-1.248S606.06,632.079,606.207,632.892Z" transform="translate(-553.216 -568.011)" fill="#fff"/>
  <ellipse id="Ellipse_76" data-name="Ellipse 76" cx="3.367" cy="1.057" rx="3.367" ry="1.057" transform="translate(62.284 10.245) rotate(-22.442)" fill="#2f2e41"/>
  <ellipse id="Ellipse_77" data-name="Ellipse 77" cx="1.057" cy="3.367" rx="1.057" ry="3.367" transform="translate(77.574 11.076) rotate(-39.938)" fill="#2f2e41"/>
  <ellipse id="Ellipse_78" data-name="Ellipse 78" cx="6.733" cy="6.733" rx="6.733" ry="6.733" transform="translate(66.65 5.076)" fill="#2f2e41"/>
  <rect id="Rectangle_84" data-name="Rectangle 84" width="2.046" height="3.665" transform="translate(74.188 17.094)" fill="#2f2e41"/>
  <rect id="Rectangle_85" data-name="Rectangle 85" width="2.046" height="3.665" transform="translate(70.097 17.094)" fill="#2f2e41"/>
  <ellipse id="Ellipse_79" data-name="Ellipse 79" cx="1.705" cy="0.639" rx="1.705" ry="0.639" transform="translate(72.824 20.162)" fill="#2f2e41"/>
  <ellipse id="Ellipse_80" data-name="Ellipse 80" cx="1.705" cy="0.639" rx="1.705" ry="0.639" transform="translate(68.733 20.077)" fill="#2f2e41"/>
  <path id="Path_1936" data-name="Path 1936" d="M738.611,225.468a5.01,5.01,0,0,1,9.678,2.4c-.6,2.421-2.6,2.429-5.269,1.766S738.01,227.889,738.611,225.468Z" transform="translate(-667.342 -222.122)" fill="#ffc727"/>
  <ellipse id="Ellipse_81" data-name="Ellipse 81" cx="2.245" cy="2.245" rx="2.245" ry="2.245" transform="translate(70.132 8.144)" fill="#fff"/>
  <ellipse id="Ellipse_82" data-name="Ellipse 82" cx="0.748" cy="0.748" rx="0.748" ry="0.748" transform="translate(70.706 9.93)" fill="#3f3d56"/>
  <path id="Path_1937" data-name="Path 1937" d="M739.207,314.274a1.5,1.5,0,1,1-2.945.536h0v0c-.147-.813.482-1.1,1.295-1.248S739.06,313.461,739.207,314.274Z" transform="translate(-665.422 -299.208)" fill="#fff"/>
  <ellipse id="Ellipse_83" data-name="Ellipse 83" cx="6.733" cy="6.733" rx="6.733" ry="6.733" transform="translate(9.04 54.891)" fill="#2f2e41"/>
  <rect id="Rectangle_86" data-name="Rectangle 86" width="2.046" height="3.665" transform="translate(12.705 66.909)" fill="#2f2e41"/>
  <rect id="Rectangle_87" data-name="Rectangle 87" width="2.046" height="3.665" transform="translate(16.796 66.909)" fill="#2f2e41"/>
  <ellipse id="Ellipse_84" data-name="Ellipse 84" cx="1.705" cy="0.639" rx="1.705" ry="0.639" transform="translate(12.705 69.978)" fill="#2f2e41"/>
  <ellipse id="Ellipse_85" data-name="Ellipse 85" cx="1.705" cy="0.639" rx="1.705" ry="0.639" transform="translate(16.796 69.892)" fill="#2f2e41"/>
  <path id="Path_1938" data-name="Path 1938" d="M341.856,545.853a5.01,5.01,0,0,1,9.733-2.173c.544,2.435-1.237,3.333-3.925,3.933S342.4,548.288,341.856,545.853Z" transform="translate(-332.614 -490.49)" fill="#ff9b15"/>
  <ellipse id="Ellipse_86" data-name="Ellipse 86" cx="3.736" cy="1.173" rx="3.736" ry="1.173" transform="translate(18.729 59.667) rotate(-45.022)" fill="#2f2e41"/>
  <ellipse id="Ellipse_87" data-name="Ellipse 87" cx="1.173" cy="3.736" rx="1.173" ry="3.736" transform="translate(4.235 56.509) rotate(-44.978)" fill="#2f2e41"/>
  <circle id="Ellipse_88" data-name="Ellipse 88" cx="2.301" cy="2.301" r="2.301" transform="translate(13.189 58.369)" fill="#fff"/>
  <ellipse id="Ellipse_89" data-name="Ellipse 89" cx="0.767" cy="0.767" rx="0.767" ry="0.767" transform="translate(14.723 59.903)" fill="#3f3d56"/>
  <path id="Path_1939" data-name="Path 1939" d="M378.033,633.183a1.5,1.5,0,0,1-2.945.536h0v0c-.147-.813.482-1.1,1.295-1.248S377.885,632.37,378.033,633.183Z" transform="translate(-360.716 -568.257)" fill="#fff"/>
</svg>
