<svg id="undraw_Happy_birthday_re_c16u" xmlns="http://www.w3.org/2000/svg" width="136.738" height="105.182" viewBox="0 0 136.738 105.182">
  <path id="Path_1940" data-name="Path 1940" d="M705.848,276.5c2.934-7.887,9.864-14.7,18.239-15.512a38.769,38.769,0,0,0-6.127,25.9c.428,3.5,1.27,7.354-.618,10.336a8.667,8.667,0,0,1-5.38,3.513,25.741,25.741,0,0,1-6.554.433l-.491.243C703.372,293.145,702.915,284.389,705.848,276.5Z" transform="translate(-614.214 -246.886)" fill="#f0f0f0"/>
  <path id="Path_1941" data-name="Path 1941" d="M728.525,260.427a33.138,33.138,0,0,0-12.311,16.252,14.263,14.263,0,0,0-.871,4.385,8.186,8.186,0,0,0,1.107,4.163,16.95,16.95,0,0,1,1.834,3.667,5.012,5.012,0,0,1-.7,4.038,13.023,13.023,0,0,1-3.8,3.524,12.789,12.789,0,0,0-4.22,3.918c-.117.208-.433.013-.316-.194,1.688-2.986,5.231-4.07,7.4-6.606A5.076,5.076,0,0,0,718,289.319a13.149,13.149,0,0,0-1.791-3.759,8.733,8.733,0,0,1-1.234-4.03,13.2,13.2,0,0,1,.7-4.4,32.146,32.146,0,0,1,4.535-8.967,33.723,33.723,0,0,1,8.139-8.061c.2-.136.369.192.175.327Z" transform="translate(-618.611 -246.151)" fill="#fff"/>
  <path id="Path_1942" data-name="Path 1942" d="M735.953,307.307a4.972,4.972,0,0,1-2.483-5.94c.073-.227.43-.124.356.1a4.6,4.6,0,0,0,2.321,5.52C736.361,307.1,736.165,307.413,735.953,307.307Z" transform="translate(-637.736 -278.94)" fill="#fff"/>
  <path id="Path_1943" data-name="Path 1943" d="M742.169,363.378a9.582,9.582,0,0,0,5.435-4.385c.118-.207.434-.013.316.194a9.967,9.967,0,0,1-5.665,4.552c-.228.071-.313-.29-.086-.361Z" transform="translate(-644.745 -324.863)" fill="#fff"/>
  <path id="Path_1944" data-name="Path 1944" d="M774.319,286.4a2.814,2.814,0,0,0,2.627.482c.227-.074.312.287.086.361a3.154,3.154,0,0,1-2.907-.527.192.192,0,0,1-.061-.255A.186.186,0,0,1,774.319,286.4Z" transform="translate(-670.232 -267.099)" fill="#fff"/>
  <path id="Path_1945" data-name="Path 1945" d="M747.92,349.09c-.14.05-.281.1-.422.154a37.056,37.056,0,0,0-5.463,2.509c-.136.074-.274.151-.408.228a39.073,39.073,0,0,0-10.932,9.349,37.932,37.932,0,0,0-3.261,4.754c-1.332,2.3-2.594,4.9-4.551,6.575a6.515,6.515,0,0,1-.638.492l-13.35-3.159c-.026-.022-.054-.042-.081-.064l-.539-.1c.044-.089.091-.181.135-.27.025-.052.053-.1.078-.155.018-.034.036-.069.05-.1.006-.012.012-.023.017-.031.014-.032.03-.06.044-.089q.395-.77.8-1.538s0,0,0-.005a55.789,55.789,0,0,1,7.407-10.914c.088-.1.176-.2.27-.3a36.254,36.254,0,0,1,4.3-4.051,32,32,0,0,1,2.636-1.882,26.612,26.612,0,0,1,7.63-3.321,21.135,21.135,0,0,1,15.911,1.7C747.681,348.946,747.8,349.016,747.92,349.09Z" transform="translate(-617.859 -314.882)" fill="#f0f0f0"/>
  <path id="Path_1946" data-name="Path 1946" d="M748.383,359a33.139,33.139,0,0,0-19.615,5.564,14.266,14.266,0,0,0-3.336,2.977,8.182,8.182,0,0,0-1.623,3.99,16.948,16.948,0,0,1-.744,4.032,5.012,5.012,0,0,1-2.993,2.8,13.021,13.021,0,0,1-5.154.526,12.785,12.785,0,0,0-5.728.587c-.219.1-.354-.25-.135-.345,3.145-1.368,6.627-.1,9.884-.821a5.075,5.075,0,0,0,3.647-2.579,13.14,13.14,0,0,0,.833-4.079,8.734,8.734,0,0,1,1.441-3.961,13.2,13.2,0,0,1,3.209-3.094,32.146,32.146,0,0,1,9.019-4.429,33.724,33.724,0,0,1,11.352-1.536C748.678,358.64,748.619,359.006,748.383,359Z" transform="translate(-618.392 -324.627)" fill="#fff"/>
  <path id="Path_1947" data-name="Path 1947" d="M813.126,356.649a4.972,4.972,0,0,1,1.593-6.238c.2-.137.418.16.222.3a4.6,4.6,0,0,0-1.47,5.805C813.577,356.728,813.231,356.862,813.126,356.649Z" transform="translate(-700.958 -318.071)" fill="#fff"/>
  <path id="Path_1948" data-name="Path 1948" d="M780.965,417.676a9.582,9.582,0,0,0,6.98-.229c.219-.095.354.251.135.345a9.967,9.967,0,0,1-7.264.224C780.591,417.935,780.741,417.6,780.965,417.676Z" transform="translate(-675.54 -371.471)" fill="#fff"/>
  <path id="Path_1949" data-name="Path 1949" d="M863.536,362.527a2.814,2.814,0,0,0,1.807,1.966c.226.078.076.417-.148.34a3.154,3.154,0,0,1-2-2.171.192.192,0,0,1,.1-.24.187.187,0,0,1,.24.105Z" transform="translate(-741.221 -327.654)" fill="#fff"/>
  <path id="Path_1950" data-name="Path 1950" d="M279.266,616.488c-7.643-3.52-13.915-10.946-14.091-19.359a38.77,38.77,0,0,0,25.366,8.066c3.525-.163,7.429-.711,10.26,1.4a8.667,8.667,0,0,1,3.1,5.63,25.736,25.736,0,0,1-.064,6.568l.2.508C295.674,620.214,286.909,620.008,279.266,616.488Z" transform="translate(-264.984 -514.579)" fill="#f0f0f0"/>
  <path id="Path_1951" data-name="Path 1951" d="M264.6,596.614a33.137,33.137,0,0,0,15.276,13.5,14.26,14.26,0,0,0,4.307,1.2,8.185,8.185,0,0,0,4.235-.789,16.943,16.943,0,0,1,3.8-1.552,5.012,5.012,0,0,1,3.973,1.007,13.019,13.019,0,0,1,3.227,4.054,12.783,12.783,0,0,0,3.588,4.5c.2.133-.019.433-.218.3-2.85-1.909-3.663-5.523-6.029-7.876a5.075,5.075,0,0,0-4.14-1.677,13.138,13.138,0,0,0-3.883,1.5,8.733,8.733,0,0,1-4.112.926,13.2,13.2,0,0,1-4.337-1.03,32.153,32.153,0,0,1-8.6-5.2,33.727,33.727,0,0,1-7.423-8.724c-.121-.2.219-.353.34-.15Z" transform="translate(-264.239 -514.091)" fill="#fff"/>
  <path id="Path_1952" data-name="Path 1952" d="M306.352,658.329a4.972,4.972,0,0,1-6.11,2.028c-.221-.09-.091-.438.13-.347a4.6,4.6,0,0,0,5.68-1.9C306.174,657.907,306.474,658.126,306.352,658.329Z" transform="translate(-292.82 -563.079)" fill="#fff"/>
  <path id="Path_1953" data-name="Path 1953" d="M364.3,643.35a9.583,9.583,0,0,0-3.962-5.75c-.2-.134.02-.434.218-.3a9.967,9.967,0,0,1,4.111,5.992C364.72,643.524,364.354,643.581,364.3,643.35Z" transform="translate(-340.708 -546.543)" fill="#fff"/>
  <path id="Path_1954" data-name="Path 1954" d="M288.333,616.485a2.815,2.815,0,0,0,.679-2.583c-.057-.232.31-.289.366-.059a3.153,3.153,0,0,1-.745,2.858.191.191,0,0,1-.259.041A.186.186,0,0,1,288.333,616.485Z" transform="translate(-283.399 -527.773)" fill="#fff"/>
  <path id="Path_1955" data-name="Path 1955" d="M357.259,505.725c.04.144.079.288.122.433a37.048,37.048,0,0,0,2.089,5.637c.063.142.13.284.2.424a39.072,39.072,0,0,0,8.5,11.607,37.962,37.962,0,0,0,4.494,3.611c2.193,1.5,4.69,2.956,6.213,5.034a6.522,6.522,0,0,1,.443.673l-4.158,13.074c-.024.025-.046.051-.07.076l-.142.53-.26-.155c-.05-.029-.1-.061-.149-.09-.033-.02-.066-.041-.1-.057l-.03-.019c-.031-.016-.058-.035-.086-.05q-.738-.452-1.473-.915s0,0,0,0a55.782,55.782,0,0,1-10.323-8.21c-.091-.094-.186-.19-.275-.291a36.2,36.2,0,0,1-3.715-4.594,32.018,32.018,0,0,1-1.677-2.77,26.618,26.618,0,0,1-2.736-7.859,21.135,21.135,0,0,1,2.9-15.737C357.1,505.953,357.177,505.84,357.259,505.725Z" transform="translate(-335.498 -441.787)" fill="#f0f0f0"/>
  <path id="Path_1956" data-name="Path 1956" d="M369.644,505.248a33.137,33.137,0,0,0,4.067,19.979,14.266,14.266,0,0,0,2.717,3.551,8.184,8.184,0,0,0,3.856,1.919,16.924,16.924,0,0,1,3.965,1.046,5.011,5.011,0,0,1,2.566,3.2,13.02,13.02,0,0,1,.136,5.179,12.786,12.786,0,0,0,.153,5.756c.078.226-.276.334-.355.109-1.126-3.24.4-6.615-.072-9.918a5.074,5.074,0,0,0-2.3-3.831,13.141,13.141,0,0,0-4-1.139,8.734,8.734,0,0,1-3.84-1.736,13.188,13.188,0,0,1-2.843-3.434,32.149,32.149,0,0,1-3.736-9.328,33.727,33.727,0,0,1-.674-11.435c.027-.237.388-.15.361.085Z" transform="translate(-347.726 -441.228)" fill="#fff"/>
  <path id="Path_1957" data-name="Path 1957" d="M361.912,585.8a4.972,4.972,0,0,1-6.1-2.06c-.122-.2.191-.4.313-.2a4.6,4.6,0,0,0,5.678,1.9C362.024,585.353,362.132,585.708,361.912,585.8Z" transform="translate(-337.144 -503.687)" fill="#fff"/>
  <path id="Path_1958" data-name="Path 1958" d="M420.651,602.62a9.583,9.583,0,0,0,.3-6.977c-.078-.226.277-.334.355-.109a9.967,9.967,0,0,1-.325,7.26C420.881,603.012,420.554,602.837,420.651,602.62Z" transform="translate(-388.788 -513.209)" fill="#fff"/>
  <path id="Path_1959" data-name="Path 1959" d="M370.982,537.046a2.814,2.814,0,0,0,2.1-1.653c.094-.22.421-.044.328.174a3.153,3.153,0,0,1-2.316,1.834.192.192,0,0,1-.232-.123.187.187,0,0,1,.123-.232Z" transform="translate(-349.143 -465.333)" fill="#fff"/>
  <path id="Path_1960" data-name="Path 1960" d="M387.731,330.9c-6.753-6.648-9.606-13.584-8.032-19.53,2.02-7.63,10.993-12.905,24.62-14.473l.05.438c-13.436,1.546-22.273,6.7-24.244,14.148-1.532,5.786,1.279,12.57,7.915,19.1Z" transform="translate(-355.852 -275.478)" fill="#f0f0f0"/>
  <path id="Path_1961" data-name="Path 1961" d="M519.754,513.18a105.715,105.715,0,0,1-26.686-3.661,100.527,100.527,0,0,1-29.832-13l.245-.366a100.091,100.091,0,0,0,29.7,12.941,102.946,102.946,0,0,0,29.5,3.595l.016.44Q521.24,513.18,519.754,513.18Z" transform="translate(-422.716 -434.163)" fill="#f0f0f0"/>
  <path id="Path_1962" data-name="Path 1962" d="M707.873,364.187l-.141-.417c7.538-2.549,12.253-6.654,13.635-11.874,1.756-6.635-2.059-14.334-10.745-21.68-8.73-7.383-21.318-13.509-35.447-17.249l.113-.426c14.19,3.757,26.84,9.914,35.619,17.339,8.823,7.462,12.689,15.32,10.886,22.129C720.372,357.378,715.558,361.589,707.873,364.187Z" transform="translate(-591.499 -287.94)" fill="#f0f0f0"/>
  <path id="Path_1963" data-name="Path 1963" d="M355.275,474.781c-16.562-7.345-29.324-16.875-35.935-26.834l.367-.244c6.566,9.89,19.261,19.363,35.747,26.675Z" transform="translate(-308.12 -395.58)" fill="#f0f0f0"/>
  <path id="Path_1964" data-name="Path 1964" d="M761.4,623.16q-2.563,0-5.213-.115l.019-.44c13.184.571,24.816-1.007,33.642-4.564l.165.409C782.317,621.552,772.5,623.16,761.4,623.16Z" transform="translate(-656.017 -531.233)" fill="#f0f0f0"/>
  <path id="Path_1965" data-name="Path 1965" d="M521.544,268.247c-2.737-.891-5.553-1.721-8.369-2.466-16.2-4.29-32.131-5.813-46.062-4.4l-.044-.438c13.983-1.414,29.965.113,46.219,4.416,2.824.748,5.647,1.58,8.392,2.474Z" transform="translate(-425.768 -246.437)" fill="#f0f0f0"/>
  <path id="Path_1966" data-name="Path 1966" d="M336.9,334.14c-6.753-6.648-9.606-13.584-8.032-19.53,2.02-7.63,10.993-12.905,24.62-14.473l.05.438c-13.436,1.546-22.273,6.7-24.244,14.148-1.532,5.786,1.279,12.57,7.915,19.1Z" transform="translate(-315.37 -278.061)" fill="#f0f0f0"/>
  <path id="Path_1967" data-name="Path 1967" d="M468.922,516.425a105.717,105.717,0,0,1-26.686-3.661,100.53,100.53,0,0,1-29.832-13l.245-.366a100.083,100.083,0,0,0,29.7,12.941,102.943,102.943,0,0,0,29.5,3.595l.016.44Q470.408,516.426,468.922,516.425Z" transform="translate(-382.235 -436.748)" fill="#f0f0f0"/>
  <path id="Path_1968" data-name="Path 1968" d="M657.04,367.432l-.141-.417c7.538-2.549,12.253-6.654,13.635-11.874,1.756-6.635-2.059-14.334-10.745-21.68-8.73-7.383-21.318-13.509-35.447-17.249l.113-.426c14.191,3.757,26.84,9.914,35.619,17.339,8.823,7.462,12.689,15.32,10.886,22.129C669.538,360.622,664.725,364.833,657.04,367.432Z" transform="translate(-551.016 -290.524)" fill="#f0f0f0"/>
  <path id="Path_1969" data-name="Path 1969" d="M304.442,478.026c-16.562-7.345-29.324-16.875-35.935-26.834l.367-.244c6.566,9.89,19.261,19.363,35.747,26.675Z" transform="translate(-267.638 -398.164)" fill="#f0f0f0"/>
  <path id="Path_1970" data-name="Path 1970" d="M710.57,626.4q-2.562,0-5.212-.114l.019-.44c13.184.571,24.816-1.007,33.642-4.564l.165.409C731.484,624.8,721.672,626.4,710.57,626.4Z" transform="translate(-615.536 -533.818)" fill="#f0f0f0"/>
  <path id="Path_1971" data-name="Path 1971" d="M470.712,271.491c-2.737-.891-5.553-1.721-8.369-2.466-16.2-4.29-32.131-5.812-46.062-4.4l-.044-.438c13.983-1.414,29.965.113,46.219,4.416,2.824.748,5.647,1.58,8.392,2.474Z" transform="translate(-385.286 -249.02)" fill="#f0f0f0"/>
  <path id="Path_1972" data-name="Path 1972" d="M449.818,462.691A3.418,3.418,0,0,0,446.4,466.1a160.418,160.418,0,0,0-1.295,28.843c.026.615.055,1.178.088,1.72.049.9.11,1.843.183,2.813.042.573.086,1.147.134,1.719.081.932.17,1.879.264,2.815.059.572.121,1.146.187,1.718.126,1.124.27,2.276.438,3.521a3.422,3.422,0,0,0,3.415,3.428h57.259a3.418,3.418,0,0,0,3.414-3.414l0-.024c.255-1.162.493-2.346.706-3.52.114-.619.213-1.181.3-1.718.161-.978.3-1.925.424-2.814.083-.6.158-1.175.222-1.718.106-.89.2-1.809.295-2.812.05-.545.1-1.107.141-1.72h0a100.13,100.13,0,0,0-2.09-28.816l0-.024a3.417,3.417,0,0,0-3.414-3.414Z" transform="translate(-408.149 -407.516)" fill="#1f3751"/>
  <path id="Path_1973" data-name="Path 1973" d="M439,440.389c-12.407,0-25.553-1.127-42.759-3.383h0a3.621,3.621,0,0,1-3.6-3.231,3.34,3.34,0,0,1-.023-.4V423.023a.527.527,0,0,1,0-.066,3.642,3.642,0,0,1,3.631-3.567c29.935-4.07,48.119-4.07,81.058,0h0a3.641,3.641,0,0,1,3.616,3.578.4.4,0,0,1,0,.055v10.351a3.334,3.334,0,0,1-.023.4,3.626,3.626,0,0,1-3.611,3.231A236.37,236.37,0,0,1,439,440.389Z" transform="translate(-366.483 -370.6)" fill="#ffc727"/>
  <path id="Path_1974" data-name="Path 1974" d="M586.592,434.538h-7.528a3.618,3.618,0,0,1-3.614-3.614V403.575a3.618,3.618,0,0,1,3.614-3.614h7.528a3.618,3.618,0,0,1,3.614,3.614v27.348A3.618,3.618,0,0,1,586.592,434.538Z" transform="translate(-512.081 -357.56)" fill="#1f3751"/>
  <path id="Path_1975" data-name="Path 1975" d="M550.79,343.394a9.557,9.557,0,0,0-.287-1.517,9.837,9.837,0,0,0-.558-1.453,8.549,8.549,0,0,0-3.849-4,10.262,10.262,0,0,0-6.759-.62,13.357,13.357,0,0,0-5.222,2.445,13.592,13.592,0,0,0-2.178,2.054,26.65,26.65,0,0,0-2,3.212,13.37,13.37,0,0,0-2.971-4.25,13.969,13.969,0,0,0-5.118-3.093,12.9,12.9,0,0,0-3.137-.638,9.984,9.984,0,0,0-3.365.294,8.478,8.478,0,0,0-4.8,3.507,8.849,8.849,0,0,0-1.5,5.4,9.077,9.077,0,0,0,.617,2.818,10.722,10.722,0,0,0,.675,1.415,11,11,0,0,0,.9,1.285,10.157,10.157,0,0,0,4.99,3.323,14.852,14.852,0,0,0,6.463.364,30.42,30.42,0,0,0,6.417-1.81c.278-.1.554-.212.831-.319a40.739,40.739,0,0,0,5.652,1.834,17.019,17.019,0,0,0,6.653.267,10.676,10.676,0,0,0,5.517-2.695,9.907,9.907,0,0,0,2.858-4.963A8.573,8.573,0,0,0,550.79,343.394Zm-28.678,8.417a14.838,14.838,0,0,1-3.6.021,11.163,11.163,0,0,1-2.5-.666,7.867,7.867,0,0,1-4.216-4.186,8.412,8.412,0,0,1-.51-1.855,7.665,7.665,0,0,1,0-1.7,8.011,8.011,0,0,1,.478-1.737,8.177,8.177,0,0,1,.9-1.538,7.726,7.726,0,0,1,1.159-1.164,7.053,7.053,0,0,1,1.3-.76,7.928,7.928,0,0,1,1.7-.454,10.05,10.05,0,0,1,2.367.018,12.235,12.235,0,0,1,2.725.751,12.862,12.862,0,0,1,2.625,1.53,12.6,12.6,0,0,1,2.028,2.022,12.417,12.417,0,0,1,1.477,2.543,12.872,12.872,0,0,1,.793,2.931l0,.015a13.356,13.356,0,0,0-.086,1.521c0,.2.009.391.019.587a1.17,1.17,0,0,0-.229.309,37.023,37.023,0,0,1-4.707,1.493Q522.977,351.688,522.112,351.811Zm26.475-6.685a8.414,8.414,0,0,1-.51,1.855,7.823,7.823,0,0,1-4.216,4.185,11.17,11.17,0,0,1-2.5.666,14.843,14.843,0,0,1-3.6-.022,29.886,29.886,0,0,1-6.179-1.723l-.247-.094a1.148,1.148,0,0,0-.22-.306,13.215,13.215,0,0,0-.066-2.125,12.874,12.874,0,0,1,.792-2.925,12.417,12.417,0,0,1,1.477-2.543,12.6,12.6,0,0,1,2.028-2.022,12.861,12.861,0,0,1,2.625-1.53,12.235,12.235,0,0,1,2.726-.751,10.049,10.049,0,0,1,2.367-.018,7.931,7.931,0,0,1,1.7.454,7.044,7.044,0,0,1,1.3.761,7.713,7.713,0,0,1,1.159,1.164,8.181,8.181,0,0,1,.9,1.538,8.011,8.011,0,0,1,.479,1.737,7.689,7.689,0,0,1,0,1.7Z" transform="translate(-459.188 -306.225)" fill="#1f3751"/>
  <ellipse id="Ellipse_90" data-name="Ellipse 90" cx="1.321" cy="1.321" rx="1.321" ry="1.321" transform="translate(46.514 75.546)" fill="#fff" opacity="0.44"/>
  <ellipse id="Ellipse_91" data-name="Ellipse 91" cx="1.321" cy="1.321" rx="1.321" ry="1.321" transform="translate(55.983 72.243)" fill="#fff" opacity="0.44"/>
  <ellipse id="Ellipse_92" data-name="Ellipse 92" cx="1.321" cy="1.321" rx="1.321" ry="1.321" transform="translate(51.799 82.594)" fill="#fff" opacity="0.44"/>
  <ellipse id="Ellipse_93" data-name="Ellipse 93" cx="1.321" cy="1.321" rx="1.321" ry="1.321" transform="translate(91 75.546)" fill="#fff" opacity="0.44"/>
  <ellipse id="Ellipse_94" data-name="Ellipse 94" cx="1.321" cy="1.321" rx="1.321" ry="1.321" transform="translate(81.53 72.243)" fill="#fff" opacity="0.44"/>
  <ellipse id="Ellipse_95" data-name="Ellipse 95" cx="1.321" cy="1.321" rx="1.321" ry="1.321" transform="translate(85.714 82.594)" fill="#fff" opacity="0.44"/>
  <ellipse id="Ellipse_96" data-name="Ellipse 96" cx="1.321" cy="1.321" rx="1.321" ry="1.321" transform="translate(92.101 98.67)" fill="#fff" opacity="0.44"/>
  <ellipse id="Ellipse_97" data-name="Ellipse 97" cx="1.321" cy="1.321" rx="1.321" ry="1.321" transform="translate(95.404 89.201)" fill="#fff" opacity="0.44"/>
  <ellipse id="Ellipse_98" data-name="Ellipse 98" cx="1.321" cy="1.321" rx="1.321" ry="1.321" transform="translate(85.054 93.385)" fill="#fff" opacity="0.44"/>
  <ellipse id="Ellipse_99" data-name="Ellipse 99" cx="1.321" cy="1.321" rx="1.321" ry="1.321" transform="translate(54.222 98.67)" fill="#fff" opacity="0.44"/>
  <ellipse id="Ellipse_100" data-name="Ellipse 100" cx="1.321" cy="1.321" rx="1.321" ry="1.321" transform="translate(57.525 89.201)" fill="#fff" opacity="0.44"/>
  <ellipse id="Ellipse_101" data-name="Ellipse 101" cx="1.321" cy="1.321" rx="1.321" ry="1.321" transform="translate(47.174 93.385)" fill="#fff" opacity="0.44"/>
  <path id="Path_2961" data-name="Path 2961" d="M687.886,199.713a3.157,3.157,0,0,0,3.075-.361,6.268,6.268,0,0,0,1.887-3.637l1.036-3.991-1.751,1.063a12.3,12.3,0,0,0-3.456,2.714,4.168,4.168,0,0,0-.77,4.132" transform="translate(-601.424 -191.724)" fill="#f2f2f2"/>
  <path id="Path_2961-2" data-name="Path 2961" d="M435.284,367.249a3.158,3.158,0,0,0,.495-3.056,6.269,6.269,0,0,0-2.981-2.811l-3.554-2.09.543,1.975a12.291,12.291,0,0,0,1.664,4.067,4.168,4.168,0,0,0,3.764,1.872" transform="translate(-395.645 -325.171)" fill="#f2f2f2"/>
  <path id="Path_2961-3" data-name="Path 2961" d="M845.19,669a3.157,3.157,0,0,0,.495-3.056,6.268,6.268,0,0,0-2.981-2.811l-3.554-2.09.543,1.975a12.294,12.294,0,0,0,1.664,4.067,4.167,4.167,0,0,0,3.763,1.872" transform="translate(-722.084 -565.479)" fill="#f2f2f2"/>
  <ellipse id="Ellipse_102" data-name="Ellipse 102" cx="1.762" cy="1.762" rx="1.762" ry="1.762" transform="translate(54.222 22.031)" fill="#ff9b15"/>
  <ellipse id="Ellipse_103" data-name="Ellipse 103" cx="1.762" cy="1.762" rx="1.762" ry="1.762" transform="translate(7.313 74.005)" fill="#ff9b15"/>
  <ellipse id="Ellipse_104" data-name="Ellipse 104" cx="1.762" cy="1.762" rx="1.762" ry="1.762" transform="translate(128.439 59.69)" fill="#ff9b15"/>
  <ellipse id="Ellipse_105" data-name="Ellipse 105" cx="1.762" cy="1.762" rx="1.762" ry="1.762" transform="translate(5.551 29.739)" fill="#e6e6e6"/>
  <ellipse id="Ellipse_106" data-name="Ellipse 106" cx="1.762" cy="1.762" rx="1.762" ry="1.762" transform="translate(114.564 79.951)" fill="#e6e6e6"/>
  <ellipse id="Ellipse_107" data-name="Ellipse 107" cx="1.762" cy="1.762" rx="1.762" ry="1.762" transform="translate(118.088 26.436)" fill="#e6e6e6"/>
  <path id="Path_1976" data-name="Path 1976" d="M459.6,463.47a.525.525,0,0,1-.729.055.586.586,0,0,1,0-.85c.63-.756,1.672.042,1.812.793a1.889,1.889,0,0,1-.889,1.881,2.034,2.034,0,0,1-2.27-.3,2.455,2.455,0,0,1,.494-3.962,3.435,3.435,0,0,1,2.969.136,24.755,24.755,0,0,1,2.822,1.764,15.734,15.734,0,0,0,6.8,2.321c.423.043.42-.618,0-.661a15.112,15.112,0,0,1-3.9-.94,17.153,17.153,0,0,1-3.509-1.926,7.8,7.8,0,0,0-3.622-1.616,3.142,3.142,0,0,0-2.9,1.26,3.208,3.208,0,0,0-.482,2.814,2.971,2.971,0,0,0,2.265,1.95,2.429,2.429,0,0,0,2.561-1.183,2.253,2.253,0,0,0-.273-2.758,1.753,1.753,0,0,0-1.7-.464,1.5,1.5,0,0,0-1.014,1.29,1.185,1.185,0,0,0,2.141.724C460.4,463.444,459.825,463.112,459.6,463.47Z" transform="translate(-416.999 -405.49)" fill="#3f3d56"/>
  <path id="Path_1977" data-name="Path 1977" d="M706.622,463.47a.525.525,0,0,0,.729.055.586.586,0,0,0,0-.85c-.63-.756-1.672.042-1.812.793a1.889,1.889,0,0,0,.889,1.881,2.034,2.034,0,0,0,2.271-.3,2.455,2.455,0,0,0-.494-3.962,3.435,3.435,0,0,0-2.97.136,24.761,24.761,0,0,0-2.822,1.764,15.734,15.734,0,0,1-6.8,2.321c-.423.043-.419-.618,0-.661a15.113,15.113,0,0,0,3.9-.94,17.16,17.16,0,0,0,3.509-1.926,7.8,7.8,0,0,1,3.622-1.616,3.142,3.142,0,0,1,2.9,1.26,3.209,3.209,0,0,1,.482,2.814,2.971,2.971,0,0,1-2.265,1.95,2.429,2.429,0,0,1-2.561-1.183,2.253,2.253,0,0,1,.273-2.758,1.752,1.752,0,0,1,1.7-.464,1.5,1.5,0,0,1,1.014,1.29,1.185,1.185,0,0,1-2.141.724c-.228-.36.344-.692.57-.333Z" transform="translate(-607.524 -405.49)" fill="#3f3d56"/>
  <path id="Path_1978" data-name="Path 1978" d="M80.811,32.188l-.873,1.095-3.086-1.826.873-1.095Z" transform="translate(-61.203 -24.18)" fill="#e4e4e4"/>
  <path id="Path_1979" data-name="Path 1979" d="M99.429,62.43l.771,1.15-3.242,1.613-.771-1.15Z" transform="translate(-76.601 -49.718)" fill="#e4e4e4"/>
  <path id="Path_1980" data-name="Path 1980" d="M127.993,37.872l1.54.055-.153,3.223-1.54-.054Z" transform="translate(-101.808 -30.16)" fill="#e4e4e4"/>
  <path id="Path_1981" data-name="Path 1981" d="M616.176,363.141l-.873,1.095-3.086-1.826.873-1.095Z" transform="translate(-487.555 -287.743)" fill="#e4e4e4"/>
  <path id="Path_1982" data-name="Path 1982" d="M634.794,393.383l.771,1.15-3.242,1.613-.771-1.15Z" transform="translate(-502.953 -313.281)" fill="#e4e4e4"/>
  <path id="Path_1983" data-name="Path 1983" d="M663.357,368.825l1.54.055-.153,3.223-1.54-.054Z" transform="translate(-528.16 -293.723)" fill="#e4e4e4"/>
</svg>
